<svg id="圖層_1" data-name="圖層 1" xmlns="http://www.w3.org/2000/svg" xmlns:xlink="http://www.w3.org/1999/xlink" viewBox="0 0 99.21 198.43"><defs><style>.cls-1{fill:#fff;}.cls-1,.cls-5,.cls-8{fill-rule:evenodd;}.cls-2{fill:none;}.cls-3{clip-path:url(#clip-path);}.cls-4{mask:url(#mask);}.cls-5{fill:#706b66;}.cls-6{clip-path:url(#clip-path-2);}.cls-7{mask:url(#mask-2);}.cls-8{fill:#ee86a1;}</style><clipPath id="clip-path"><rect class="cls-2" width="99.21" height="99.21"/></clipPath><mask id="mask" x="0.71" y="22.82" width="97.8" height="53.58" maskUnits="userSpaceOnUse"><g id="b"><path id="a" class="cls-1" d="M.71,22.82h97.8V76.39H.71Z"/></g></mask><clipPath id="clip-path-2"><rect class="cls-2" y="99.21" width="99.21" height="99.21"/></clipPath><mask id="mask-2" x="0.71" y="122.03" width="97.8" height="53.58" maskUnits="userSpaceOnUse"><g id="b-2" data-name="b"><path id="a-2" data-name="a" class="cls-1" d="M.71,122h97.8v53.58H.71Z"/></g></mask></defs><title>icon-macaron</title><g class="cls-3"><g class="cls-4"><path class="cls-5" d="M87.5,70.09a66.75,66.75,0,0,1-18.77,2.37A66.8,66.8,0,0,1,50,70.09c-5.24-1.6-6.69-3.35-6.62-4,.12-1.16,2.26-1.55,3.13-1.58a8.53,8.53,0,0,1,4.7,1.14,12.9,12.9,0,0,0,6.43,1.54A12.87,12.87,0,0,0,64,65.6a10.28,10.28,0,0,1,9.41,0,14.17,14.17,0,0,0,12.85,0A9.15,9.15,0,0,1,91,64.46c2.18,0,3.12,1.05,3.12,1.58,0,.7-1.38,2.45-6.62,4M23.16,71c-5.08,2-7,1.86-7.71,1-.27-.32-.39-1.63,1.44-3.18h0a9,9,0,0,1,4.38-2,13,13,0,0,0,6-2.82,12.82,12.82,0,0,0,4-5.21,9,9,0,0,1,2.94-3.82,9,9,0,0,1,4.38-2,13,13,0,0,0,6-2.82,12.82,12.82,0,0,0,4-5.21A9,9,0,0,1,51.52,41h0c2.87-2.3,3.63.27,3.64.3.19.78-.2,2.63-2.8,6.26a61.1,61.1,0,0,1-4.16,5.22l0,0a79.26,79.26,0,0,1-8.91,8.3A66.65,66.65,0,0,1,23.16,71M9.41,65.21a3.5,3.5,0,0,1-.79-2.28c4.59-1.42,11-6.09,20.78-13.94,6.66-5.35,11.45-9.37,14.74-12.92a23.27,23.27,0,0,0,3.35-4.33A3.55,3.55,0,0,1,49.56,33a3.51,3.51,0,0,1-.53,5,12.82,12.82,0,0,0-4,5.21A9,9,0,0,1,42.07,47,9.15,9.15,0,0,1,37.69,49a12.8,12.8,0,0,0-6,2.82,12.73,12.73,0,0,0-4,5.21,9.07,9.07,0,0,1-2.94,3.82,9.11,9.11,0,0,1-4.38,2.05,12.85,12.85,0,0,0-6,2.82h0a3.57,3.57,0,0,1-5-.53M7.32,51.45a61.46,61.46,0,0,1,13-13.67c9.48-7.62,17.88-11,22-11a3.09,3.09,0,0,1,2.22.66c.52.63-.07,2.54-3.27,6C37.76,37.13,32,41.82,26.91,45.93c-6.71,5.38-16.85,13.52-21,13.52-.63,0-.8-.21-.89-.33-.73-.89-.3-3.62,2.32-7.67M87.46,45c4.6,1.52,6.66,3.37,6.66,4.52,0,.82-1.66,1.94-6.32,2.62-5.06.74-12.5.8-19.07.8-5,0-10.55,0-15.14-.39.73-.9,1.41-1.83,2.07-2.79a20.8,20.8,0,0,0,3.23-6.68,75.75,75.75,0,0,1,9.84-.62A62.27,62.27,0,0,1,87.46,45M46.05,60.5c1.51-1.37,3-2.81,4.37-4.3a166,166,0,0,0,18.31.66c8.57,0,14.84-.14,19.65-.84a24.22,24.22,0,0,0,5.34-1.27A3.5,3.5,0,0,1,94.54,57,3.68,3.68,0,0,1,91,60.53a13.55,13.55,0,0,0-6.42,1.53,10.2,10.2,0,0,1-9.41,0,14.28,14.28,0,0,0-12.86,0,9.07,9.07,0,0,1-4.7,1.15,9,9,0,0,1-4.7-1.15,16.23,16.23,0,0,0-6.85-1.56m50.13,1.89A7.41,7.41,0,0,0,97,52.54a4.66,4.66,0,0,0,1.08-3c0-7.22-14.77-11-29.36-11a81.55,81.55,0,0,0-9.94.6A4.89,4.89,0,0,0,58,37.8a4.55,4.55,0,0,0-3.79-1.65c0-.06,0-.11,0-.17a7.32,7.32,0,0,0-1.63-5.47,7.41,7.41,0,0,0-4-2.54,4.66,4.66,0,0,0-1.08-3c-.79-1-2.35-2.12-5.3-2.12-5.88,0-15.49,4.67-24.49,11.89C6.44,43.82-2.65,56,1.91,61.6a4.81,4.81,0,0,0,2.75,1.66,7.46,7.46,0,0,0,6.88,7.16,4.55,4.55,0,0,0,.83,4,5.87,5.87,0,0,0,4.84,1.93,20.6,20.6,0,0,0,7.42-1.74A66.91,66.91,0,0,0,39.38,66v0c0,2.25,1.63,5.43,9.41,7.81a71,71,0,0,0,19.94,2.54,70.88,70.88,0,0,0,19.94-2.54c7.78-2.38,9.42-5.56,9.42-7.81a4.5,4.5,0,0,0-1.91-3.65"/></g></g><g class="cls-6"><g class="cls-7"><path class="cls-8" d="M87.5,169.3a66.75,66.75,0,0,1-18.77,2.37A66.8,66.8,0,0,1,50,169.3c-5.24-1.6-6.69-3.35-6.62-4,.12-1.17,2.26-1.56,3.13-1.58a8.45,8.45,0,0,1,4.7,1.14,13,13,0,0,0,6.43,1.53A13,13,0,0,0,64,164.82a10.28,10.28,0,0,1,9.41,0,14.26,14.26,0,0,0,12.85,0A9,9,0,0,1,91,163.68c2.18,0,3.12,1,3.12,1.58,0,.69-1.38,2.44-6.62,4m-64.34.91c-5.08,2-7,1.86-7.71,1-.27-.33-.39-1.64,1.44-3.19h0a9.11,9.11,0,0,1,4.38-2,12.85,12.85,0,0,0,6-2.82,12.87,12.87,0,0,0,4-5.2,9,9,0,0,1,2.94-3.83,9.11,9.11,0,0,1,4.38-2.05,12.89,12.89,0,0,0,6-2.82,12.87,12.87,0,0,0,4-5.2,9,9,0,0,1,2.93-3.83h0c2.87-2.29,3.63.27,3.64.3.19.78-.2,2.63-2.8,6.26A58.13,58.13,0,0,1,48.21,152l0,0a78.34,78.34,0,0,1-8.91,8.3,66.65,66.65,0,0,1-16.1,9.88M9.41,164.42a3.5,3.5,0,0,1-.79-2.28c4.59-1.41,11-6.09,20.78-13.94,6.66-5.35,11.45-9.37,14.74-12.92A23.27,23.27,0,0,0,47.49,131a3.52,3.52,0,0,1,1.54,6.2,12.82,12.82,0,0,0-4,5.21,9,9,0,0,1-2.93,3.82,9.06,9.06,0,0,1-4.38,2,12.91,12.91,0,0,0-6,2.82,12.73,12.73,0,0,0-4,5.21,9.07,9.07,0,0,1-2.94,3.82,9,9,0,0,1-4.38,2,13,13,0,0,0-6,2.82h0a3.57,3.57,0,0,1-5-.53M7.32,150.66a61.46,61.46,0,0,1,13-13.67c9.48-7.61,17.88-11,22-11a3.09,3.09,0,0,1,2.22.66c.52.64-.07,2.54-3.27,6C37.76,136.35,32,141,26.91,145.14c-6.71,5.38-16.85,13.52-21,13.52-.63,0-.8-.21-.89-.32-.73-.9-.3-3.62,2.32-7.68m80.14-6.45c4.6,1.52,6.66,3.36,6.66,4.52,0,.81-1.66,1.93-6.32,2.61-5.06.74-12.5.8-19.07.8-5,0-10.55,0-15.14-.38.73-.91,1.41-1.84,2.07-2.79a20.93,20.93,0,0,0,3.23-6.69,75.75,75.75,0,0,1,9.84-.62,62.25,62.25,0,0,1,18.73,2.55M46.05,159.72q2.27-2.07,4.37-4.31a165.58,165.58,0,0,0,18.31.67c8.57,0,14.84-.14,19.65-.85A23.66,23.66,0,0,0,93.72,154a3.54,3.54,0,0,1,.82,2.25A3.68,3.68,0,0,1,91,159.74a13.53,13.53,0,0,0-6.42,1.54,10.28,10.28,0,0,1-9.41,0,14.19,14.19,0,0,0-12.86,0,9.18,9.18,0,0,1-4.7,1.14,9,9,0,0,1-4.7-1.14,16,16,0,0,0-6.85-1.56m50.13,1.88a7.41,7.41,0,0,0,.83-9.85,4.61,4.61,0,0,0,1.08-3c0-7.23-14.77-11-29.36-11a79.6,79.6,0,0,0-9.94.6A4.8,4.8,0,0,0,58,137a4.58,4.58,0,0,0-3.79-1.65c0-.05,0-.11,0-.16a7.48,7.48,0,0,0-5.61-8,4.66,4.66,0,0,0-1.08-3c-.79-1-2.35-2.12-5.3-2.12-5.88,0-15.49,4.67-24.49,11.9C6.44,143-2.65,155.19,1.91,160.81a4.71,4.71,0,0,0,2.75,1.66,7.46,7.46,0,0,0,6.88,7.17,4.53,4.53,0,0,0,.83,4,5.87,5.87,0,0,0,4.84,1.93,20.6,20.6,0,0,0,7.42-1.74,66.91,66.91,0,0,0,14.75-8.63v0c0,2.24,1.63,5.42,9.41,7.8a71,71,0,0,0,19.94,2.55,70.86,70.86,0,0,0,19.94-2.55c7.78-2.38,9.42-5.56,9.42-7.8a4.5,4.5,0,0,0-1.91-3.66"/></g></g></svg>