<svg id="圖層_1" data-name="圖層 1" xmlns="http://www.w3.org/2000/svg" xmlns:xlink="http://www.w3.org/1999/xlink" viewBox="0 0 80 40"><defs><style>.cls-1,.cls-10,.cls-2{fill:none;}.cls-1{clip-rule:evenodd;}.cls-3{clip-path:url(#clip-path);}.cls-4{clip-path:url(#clip-path-2);}.cls-5{clip-path:url(#clip-path-3);}.cls-6{clip-path:url(#clip-path-4);}.cls-7{isolation:isolate;}.cls-8{clip-path:url(#clip-path-5);}.cls-9{clip-path:url(#clip-path-6);}.cls-10{stroke:#e9e9e9;stroke-miterlimit:10;stroke-width:2px;}.cls-11{clip-path:url(#clip-path-7);}.cls-12{clip-path:url(#clip-path-8);}.cls-13{clip-path:url(#clip-path-9);}.cls-14{clip-path:url(#clip-path-10);}.cls-15{clip-path:url(#clip-path-11);}.cls-16{clip-path:url(#clip-path-12);}</style><clipPath id="clip-path"><polygon class="cls-1" points="28 18.97 28 20.99 17.01 20.99 17.01 24.01 12 19.98 17.01 15.99 17.01 18.97 28 18.97"/></clipPath><clipPath id="clip-path-2"><rect class="cls-2" x="-200" y="-2517.01" width="1440" height="3310"/></clipPath><clipPath id="clip-path-3"><circle class="cls-2" cx="20" cy="20" r="20"/></clipPath><clipPath id="clip-path-4"><rect class="cls-2" x="-200" y="-2517" width="1440" height="3310"/></clipPath><clipPath id="clip-path-5"><rect class="cls-2" x="-10" y="-10" width="60" height="60"/></clipPath><clipPath id="clip-path-6"><rect class="cls-2" width="40" height="40"/></clipPath><clipPath id="clip-path-7"><polygon class="cls-1" points="52 18.97 52 20.99 62.99 20.99 62.99 24.01 68 19.98 62.99 15.99 62.99 18.97 52 18.97"/></clipPath><clipPath id="clip-path-8"><rect class="cls-2" x="-1160" y="-2517.01" width="1440" height="3310"/></clipPath><clipPath id="clip-path-9"><circle class="cls-2" cx="60" cy="20" r="20"/></clipPath><clipPath id="clip-path-10"><rect class="cls-2" x="-1160" y="-2517" width="1440" height="3310"/></clipPath><clipPath id="clip-path-11"><rect class="cls-2" x="30" y="-10" width="60" height="60"/></clipPath><clipPath id="clip-path-12"><rect class="cls-2" x="40" width="40" height="40"/></clipPath></defs><title>icon2</title><g class="cls-3"><g class="cls-4"><rect x="7" y="10.99" width="26" height="18.03"/></g></g><g class="cls-5"><g class="cls-6"><g class="cls-7"><g class="cls-8"><g class="cls-9"><circle class="cls-10" cx="20" cy="20" r="20"/></g></g></g></g></g><g class="cls-11"><g class="cls-12"><rect x="47" y="10.99" width="26" height="18.03"/></g></g><g class="cls-13"><g class="cls-14"><g class="cls-7"><g class="cls-15"><g class="cls-16"><circle class="cls-10" cx="60" cy="20" r="20"/></g></g></g></g></g></svg>