<svg id="圖層_1" data-name="圖層 1" xmlns="http://www.w3.org/2000/svg" xmlns:xlink="http://www.w3.org/1999/xlink" viewBox="0 0 99.21 198.43"><defs><style>.cls-1{fill:#fff;}.cls-1,.cls-5,.cls-8{fill-rule:evenodd;}.cls-2{fill:none;}.cls-3{clip-path:url(#clip-path);}.cls-4{mask:url(#mask);}.cls-5{fill:#706b66;}.cls-6{clip-path:url(#clip-path-2);}.cls-7{mask:url(#mask-2);}.cls-8{fill:#ee86a1;}</style><clipPath id="clip-path"><rect class="cls-2" width="99.21" height="99.21"/></clipPath><mask id="mask" x="6.89" y="0.71" width="85.44" height="97.8" maskUnits="userSpaceOnUse"><g id="b"><path id="a" class="cls-1" d="M6.89.71H92.33V98.5H6.89Z"/></g></mask><clipPath id="clip-path-2"><rect class="cls-2" y="99.21" width="99.21" height="99.21"/></clipPath><mask id="mask-2" x="6.89" y="99.92" width="85.44" height="97.8" maskUnits="userSpaceOnUse"><g id="b-2" data-name="b"><path id="a-2" data-name="a" class="cls-1" d="M6.89,99.92H92.33v97.8H6.89Z"/></g></mask></defs><title>icon-cake</title><g class="cls-3"><g class="cls-4"><path class="cls-5" d="M88.26,67.94a6.11,6.11,0,0,1-12,1.53,2,2,0,0,0-2-1.53H74a2,2,0,0,0-2,2h0v2a6.1,6.1,0,0,1-12,1.53A2,2,0,0,0,58,72h-.26a2,2,0,0,0-2,2,6.11,6.11,0,1,1-12.21,0,2,2,0,0,0-2-2h-.26a2,2,0,0,0-2,1.53,6.1,6.1,0,0,1-12-1.53V70a2,2,0,0,0-2-2h-.25a2,2,0,0,0-2,1.53,6.11,6.11,0,0,1-12-1.53V61.83a6.12,6.12,0,0,1,6.11-6.11h2c0,2.85,3.16,4.86,10,6.31a102.38,102.38,0,0,0,20.57,1.84A102.28,102.28,0,0,0,70.17,62c6.79-1.45,10-3.46,10-6.31h2a6.12,6.12,0,0,1,6.11,6.11v6.11Zm0,22.41a4.08,4.08,0,0,1-4.07,4.08H15A4.08,4.08,0,0,1,11,90.35V76.09a10.16,10.16,0,0,0,12.85-.52A10.18,10.18,0,0,0,40.73,79a10.16,10.16,0,0,0,17.76,0,10.16,10.16,0,0,0,16.92-3.45,10.16,10.16,0,0,0,12.85.52Zm-65.1-48.9a10.13,10.13,0,0,0,10,1.25A10.16,10.16,0,0,0,49.61,47a10.09,10.09,0,0,0,6.78,2.6A10.2,10.2,0,0,0,66,42.7a10.11,10.11,0,0,0,10-1.25V55.53c-.41.48-2.43,1.72-8,2.77a104.25,104.25,0,0,1-18.49,1.49,104.37,104.37,0,0,1-18.5-1.49c-5.52-1-7.54-2.29-7.95-2.77Zm4.07-12.22h5.2c1.21.82,3.24,1.16,5.42,1.43a100.85,100.85,0,0,0,11.76.61,101.1,101.1,0,0,0,11.76-.61c2.17-.27,4.2-.61,5.41-1.43H72a4.08,4.08,0,0,1,4.07,4.08,6.1,6.1,0,0,1-10.17,4.55,2,2,0,0,0-3.39,1.52v0A6.1,6.1,0,0,1,51.3,42.8a2,2,0,0,0-2.82-.57,2.06,2.06,0,0,0-.57.57,6.1,6.1,0,0,1-11.19-3.38v0a2,2,0,0,0-2.71-3,2,2,0,0,0-.68,1.51,6.1,6.1,0,0,1-10.17-4.55,4.08,4.08,0,0,1,4.07-4.08ZM35.37,15a2,2,0,0,1,2-2h6l3.85,3.22a3.72,3.72,0,0,0,4.76,0l3.85-3.22h6a2,2,0,0,1,2,2V26.1C62,26.61,57,27.2,49.61,27.2s-12.38-.59-14.24-1.1V15ZM45.94,4.78a2.22,2.22,0,0,1,1.92,1.09,2,2,0,0,0,2.8.7,2.1,2.1,0,0,0,.69-.7A2.24,2.24,0,0,1,55.51,7a1.89,1.89,0,0,1-.68,1.44l-5.22,4.36L44.38,8.47A1.88,1.88,0,0,1,43.71,7a2.24,2.24,0,0,1,2.23-2.24ZM82.16,51.64h-2V33.31A8.15,8.15,0,0,0,72,25.16H67.92V15a6.12,6.12,0,0,0-6.11-6.11H59.29A6,6,0,0,0,59.58,7,6.33,6.33,0,0,0,53.27.71a6.22,6.22,0,0,0-3.66,1.18A6.3,6.3,0,0,0,39.64,7a6,6,0,0,0,.29,1.84H37.4A6.11,6.11,0,0,0,31.3,15V25.16H27.23a8.15,8.15,0,0,0-8.14,8.15V51.64h-2A10.2,10.2,0,0,0,6.89,61.83V90.35A8.15,8.15,0,0,0,15,98.5H84.19a8.15,8.15,0,0,0,8.14-8.15V61.83A10.2,10.2,0,0,0,82.16,51.64Z"/></g></g><g class="cls-6"><g class="cls-7"><path class="cls-8" d="M88.26,167.16a6.11,6.11,0,0,1-12,1.52,2,2,0,0,0-2-1.53H74a2,2,0,0,0-2,2h0v2a6.1,6.1,0,0,1-12,1.53,2,2,0,0,0-2-1.53h-.26a2,2,0,0,0-2,2,6.11,6.11,0,1,1-12.21,0,2,2,0,0,0-2-2h-.26a2,2,0,0,0-2,1.53,6.1,6.1,0,0,1-12-1.53v-2a2,2,0,0,0-2-2h-.25a2,2,0,0,0-2,1.52,6.11,6.11,0,0,1-12-1.53V161a6.12,6.12,0,0,1,6.11-6.11h2c0,2.85,3.16,4.86,10,6.32a103.19,103.19,0,0,0,20.57,1.83,103.08,103.08,0,0,0,20.56-1.83c6.79-1.46,10-3.47,10-6.32h2A6.12,6.12,0,0,1,88.26,161v6.12Zm0,22.41a4.07,4.07,0,0,1-4.07,4.07H15A4.07,4.07,0,0,1,11,189.57V175.3a10.18,10.18,0,0,0,12.85-.51,10.17,10.17,0,0,0,16.93,3.44,10.16,10.16,0,0,0,17.76,0,10.16,10.16,0,0,0,16.92-3.44,10.18,10.18,0,0,0,12.85.51Zm-65.1-48.9a10.16,10.16,0,0,0,10,1.25,10.17,10.17,0,0,0,16.41,4.31A10.17,10.17,0,0,0,66,141.92a10.16,10.16,0,0,0,10-1.25v14.08c-.41.48-2.43,1.71-8,2.76A104.17,104.17,0,0,1,49.61,159a104.29,104.29,0,0,1-18.5-1.5c-5.52-1-7.54-2.28-7.95-2.76Zm4.07-12.22h5.2c1.21.81,3.24,1.15,5.42,1.42a98.69,98.69,0,0,0,11.76.61,98.93,98.93,0,0,0,11.76-.61c2.17-.27,4.2-.61,5.41-1.42H72a4.07,4.07,0,0,1,4.07,4.07,6.11,6.11,0,0,1-10.17,4.56,2,2,0,0,0-3.39,1.51v0A6.1,6.1,0,0,1,51.3,142a2,2,0,0,0-2.82-.57,2.06,2.06,0,0,0-.57.57,6.1,6.1,0,0,1-11.19-3.38v0a2,2,0,1,0-3.39-1.51,6.11,6.11,0,0,1-10.17-4.56,4.07,4.07,0,0,1,4.07-4.07Zm8.14-14.27a2,2,0,0,1,2-2h6l3.85,3.21a3.72,3.72,0,0,0,4.76,0l3.85-3.21h6a2,2,0,0,1,2,2v11.13c-1.87.51-6.89,1.1-14.24,1.1s-12.38-.59-14.24-1.1V114.18ZM45.94,104a2.21,2.21,0,0,1,1.92,1.08,2,2,0,0,0,2.8.7,2,2,0,0,0,.69-.7A2.21,2.21,0,0,1,53.27,104a2.24,2.24,0,0,1,2.24,2.24,1.87,1.87,0,0,1-.68,1.44L49.61,112l-5.23-4.36a1.88,1.88,0,0,1-.67-1.44A2.23,2.23,0,0,1,45.94,104Zm36.22,46.86h-2V132.52A8.16,8.16,0,0,0,72,124.37H67.92V114.18a6.12,6.12,0,0,0-6.11-6.11H59.29a5.89,5.89,0,0,0,.29-1.83,6.3,6.3,0,0,0-10-5.14,6.3,6.3,0,0,0-10,5.14,5.89,5.89,0,0,0,.29,1.83H37.4a6.11,6.11,0,0,0-6.1,6.11v10.19H27.23a8.16,8.16,0,0,0-8.14,8.15v18.34h-2A10.19,10.19,0,0,0,6.89,161v28.53A8.15,8.15,0,0,0,15,197.72H84.19a8.16,8.16,0,0,0,8.14-8.15V161a10.19,10.19,0,0,0-10.17-10.18Z"/></g></g></svg>