<svg id="圖層_1" data-name="圖層 1" xmlns="http://www.w3.org/2000/svg" xmlns:xlink="http://www.w3.org/1999/xlink" viewBox="0 0 99.21 198.43"><defs><style>.cls-1{fill:#fff;}.cls-1,.cls-4,.cls-7{fill-rule:evenodd;}.cls-2{fill:none;}.cls-3{clip-path:url(#clip-path);}.cls-4{fill:#706b66;}.cls-5{mask:url(#mask);}.cls-6{clip-path:url(#clip-path-2);}.cls-7{fill:#ee86a1;}.cls-8{mask:url(#mask-4);}</style><clipPath id="clip-path"><rect class="cls-2" width="99.21" height="99.21"/></clipPath><mask id="mask" x="0.71" y="0.71" width="97.8" height="97.8" maskUnits="userSpaceOnUse"><g id="b"><path id="a" class="cls-1" d="M.71,98.5H98.5V.71H.71Z"/></g></mask><clipPath id="clip-path-2"><rect class="cls-2" y="99.21" width="99.21" height="99.21"/></clipPath><mask id="mask-4" x="0.71" y="99.92" width="97.8" height="97.8" maskUnits="userSpaceOnUse"><g id="b-4" data-name="b"><path id="a-4" data-name="a" class="cls-1" d="M.71,197.72H98.5V99.92H.71Z"/></g></mask></defs><title>icon-cookie</title><g class="cls-3"><path class="cls-4" d="M22.08,43.44a3.29,3.29,0,1,0,3.28,3.29,3.29,3.29,0,0,0-3.28-3.29m0,9.86a6.57,6.57,0,1,1,6.57-6.57,6.58,6.58,0,0,1-6.57,6.57"/><g class="cls-5"><path class="cls-4" d="M23.72,17.14H27V13.86H23.72Zm4.93,3.29H22.08a1.64,1.64,0,0,1-1.65-1.64V12.21a1.65,1.65,0,0,1,1.65-1.64h6.57a1.64,1.64,0,0,1,1.64,1.64v6.58A1.63,1.63,0,0,1,28.65,20.43ZM49.2,22.9h3.28V19.61H49.2Zm4.93,3.28H47.55a1.63,1.63,0,0,1-1.64-1.64V18a1.64,1.64,0,0,1,1.64-1.65h6.58A1.65,1.65,0,0,1,55.77,18v6.57A1.64,1.64,0,0,1,54.13,26.18ZM32.76,36.87a1.64,1.64,0,0,1-1.64-1.65,4.94,4.94,0,0,1,4.93-4.93,1.65,1.65,0,0,1,0,3.29,1.65,1.65,0,0,0-1.65,1.64,1.64,1.64,0,0,1-1.64,1.65m7.4-14a1.65,1.65,0,0,1-1.65-1.65,1.64,1.64,0,0,0-1.64-1.64,1.65,1.65,0,1,1,0-3.29,4.94,4.94,0,0,1,4.93,4.93,1.65,1.65,0,0,1-1.64,1.65m-23,7.39a1.64,1.64,0,0,1-1.64-1.64A1.63,1.63,0,0,0,13.86,27a1.65,1.65,0,1,1,0-3.29,4.93,4.93,0,0,1,4.93,4.93,1.64,1.64,0,0,1-1.65,1.64M61.52,80.42a3.29,3.29,0,1,0,3.29,3.29,3.29,3.29,0,0,0-3.29-3.29m0,9.87a6.58,6.58,0,1,1,6.58-6.58,6.58,6.58,0,0,1-6.58,6.58M50,53.3a3.29,3.29,0,1,0,3.28,3.29A3.29,3.29,0,0,0,50,53.3m0,9.87a6.58,6.58,0,1,1,6.57-6.58A6.59,6.59,0,0,1,50,63.17m17.26-.83h3.28V59.06H67.28Zm4.93,3.29H65.63A1.63,1.63,0,0,1,64,64V57.41a1.64,1.64,0,0,1,1.64-1.64h6.58a1.65,1.65,0,0,1,1.64,1.64V64A1.64,1.64,0,0,1,72.21,65.63Zm3.28,19.72a1.64,1.64,0,0,1-1.64-1.64,4.93,4.93,0,0,1,4.93-4.93,1.65,1.65,0,0,1,0,3.29,1.63,1.63,0,0,0-1.64,1.64,1.64,1.64,0,0,1-1.65,1.64m8.22-13.14a1.64,1.64,0,0,1-1.64-1.65,1.65,1.65,0,0,0-1.65-1.64,1.65,1.65,0,0,1,0-3.29,4.93,4.93,0,0,1,4.93,4.93,1.64,1.64,0,0,1-1.64,1.65M64,50a1.65,1.65,0,0,1-1.65-1.65,1.64,1.64,0,0,0-1.64-1.64,1.65,1.65,0,0,1,0-3.29,4.94,4.94,0,0,1,4.93,4.93A1.64,1.64,0,0,1,64,50M48.37,77.14a1.65,1.65,0,0,1-1.64-1.65,1.65,1.65,0,0,0-1.64-1.64,1.65,1.65,0,1,1,0-3.29A4.94,4.94,0,0,1,50,75.49a1.65,1.65,0,0,1-1.65,1.65"/></g><g class="cls-5"><path class="cls-4" d="M64.4,33.54A30.86,30.86,0,1,0,95.26,64.4c0-.54,0-1.08-.05-1.63a11.37,11.37,0,0,1-11-8.87,14.57,14.57,0,0,1-10-13.12,6.49,6.49,0,0,1-3.26-5.61,6.69,6.69,0,0,1,.06-.9,30.81,30.81,0,0,0-6.56-.73m0,65a34.11,34.11,0,1,1,9-67,1.62,1.62,0,0,1,1.14,2,2,2,0,0,1-.1.26,3.44,3.44,0,0,0-.32,1.38,3.25,3.25,0,0,0,2.18,3,1.64,1.64,0,0,1,1.09,1.57,1.36,1.36,0,0,1,0,.21A11.36,11.36,0,0,0,86,51.05a1.64,1.64,0,0,1,1.22,1.38,8.12,8.12,0,0,0,8.05,7.1,9.71,9.71,0,0,0,1.21-.1,1.62,1.62,0,0,1,1.85,1.44,34.92,34.92,0,0,1,.18,3.53A34.14,34.14,0,0,1,64.4,98.5"/></g><g class="cls-5"><path class="cls-4" d="M34.89,4A30.93,30.93,0,0,0,30,65.43c0-.41,0-.83,0-1.24A34.21,34.21,0,0,1,64.19,30l1.24,0A30.76,30.76,0,0,0,34.89,4m-3.1,65h-.15A34.18,34.18,0,1,1,68.91,31.66a1.61,1.61,0,0,1-.47,1.3,1.68,1.68,0,0,1-1.31.47c-1-.1-2-.16-2.94-.17A31,31,0,0,0,33.26,64.19c0,.92.05,1.88.15,3A1.62,1.62,0,0,1,32,68.91h-.16"/></g></g><g class="cls-6"><path class="cls-7" d="M22.08,142.66a3.29,3.29,0,1,0,3.28,3.28,3.28,3.28,0,0,0-3.28-3.28m0,9.86a6.58,6.58,0,1,1,6.57-6.58,6.59,6.59,0,0,1-6.57,6.58"/><g class="cls-8"><path class="cls-7" d="M23.72,116.36H27v-3.29H23.72Zm4.93,3.28H22.08A1.64,1.64,0,0,1,20.43,118v-6.57a1.65,1.65,0,0,1,1.65-1.65h6.57a1.64,1.64,0,0,1,1.64,1.65V118A1.63,1.63,0,0,1,28.65,119.64Zm20.55,2.47h3.28v-3.29H49.2Zm4.93,3.29H47.55a1.64,1.64,0,0,1-1.64-1.65v-6.57a1.63,1.63,0,0,1,1.64-1.64h6.58a1.64,1.64,0,0,1,1.64,1.64v6.57A1.65,1.65,0,0,1,54.13,125.4ZM32.76,136.08a1.64,1.64,0,0,1-1.64-1.64,4.93,4.93,0,0,1,4.93-4.93,1.64,1.64,0,0,1,0,3.28,1.65,1.65,0,0,0-1.65,1.65,1.64,1.64,0,0,1-1.64,1.64m7.4-14a1.65,1.65,0,0,1-1.65-1.64,1.64,1.64,0,0,0-1.64-1.65,1.64,1.64,0,1,1,0-3.28,4.93,4.93,0,0,1,4.93,4.93,1.64,1.64,0,0,1-1.64,1.64m-23,7.4a1.65,1.65,0,0,1-1.64-1.65,1.64,1.64,0,0,0-1.64-1.64,1.65,1.65,0,1,1,0-3.29,4.93,4.93,0,0,1,4.93,4.93,1.65,1.65,0,0,1-1.65,1.65m44.38,50.13a3.29,3.29,0,1,0,3.29,3.28,3.28,3.28,0,0,0-3.29-3.28m0,9.86a6.58,6.58,0,1,1,6.58-6.58,6.58,6.58,0,0,1-6.58,6.58m-11.5-37a3.29,3.29,0,1,0,3.28,3.28A3.28,3.28,0,0,0,50,152.52m0,9.86a6.58,6.58,0,1,1,6.57-6.58A6.59,6.59,0,0,1,50,162.38m17.26-.82h3.28v-3.29H67.28Zm4.93,3.28H65.63A1.63,1.63,0,0,1,64,163.2v-6.57A1.64,1.64,0,0,1,65.63,155h6.58a1.65,1.65,0,0,1,1.64,1.65v6.57A1.64,1.64,0,0,1,72.21,164.84Zm3.28,19.73a1.65,1.65,0,0,1-1.64-1.65A4.94,4.94,0,0,1,78.78,178a1.65,1.65,0,0,1,0,3.29,1.64,1.64,0,0,0-1.64,1.64,1.65,1.65,0,0,1-1.65,1.65m8.22-13.15a1.64,1.64,0,0,1-1.64-1.64,1.65,1.65,0,0,0-1.65-1.65,1.65,1.65,0,0,1,0-3.29,4.94,4.94,0,0,1,4.93,4.94,1.64,1.64,0,0,1-1.64,1.64M64,149.23a1.65,1.65,0,0,1-1.65-1.64,1.64,1.64,0,0,0-1.64-1.65,1.64,1.64,0,0,1,0-3.28,4.93,4.93,0,0,1,4.93,4.93A1.63,1.63,0,0,1,64,149.23M48.37,176.35a1.65,1.65,0,0,1-1.64-1.64,1.65,1.65,0,0,0-1.64-1.65,1.64,1.64,0,1,1,0-3.28A4.94,4.94,0,0,1,50,174.71a1.65,1.65,0,0,1-1.65,1.64"/></g><g class="cls-8"><path class="cls-7" d="M64.4,132.75a30.86,30.86,0,1,0,30.86,30.86c0-.53,0-1.08-.05-1.62a11.38,11.38,0,0,1-11-8.88,14.56,14.56,0,0,1-10-13.12,6.48,6.48,0,0,1-3.26-5.61,6.54,6.54,0,0,1,.06-.89,30.19,30.19,0,0,0-6.56-.74m0,65a34.11,34.11,0,1,1,9-67,1.63,1.63,0,0,1,1.14,2,2.77,2.77,0,0,1-.1.26,3.4,3.4,0,0,0-.32,1.37,3.24,3.24,0,0,0,2.18,3,1.62,1.62,0,0,1,1.07,1.79,11.36,11.36,0,0,0,8.6,11,1.65,1.65,0,0,1,1.22,1.38,8.05,8.05,0,0,0,9.26,7,1.64,1.64,0,0,1,1.23.32,1.61,1.61,0,0,1,.62,1.12,35.07,35.07,0,0,1,.18,3.53,34.14,34.14,0,0,1-34.1,34.11"/></g><g class="cls-8"><path class="cls-7" d="M34.89,103.18A30.92,30.92,0,0,0,30,164.64c0-.41,0-.82,0-1.24a34.22,34.22,0,0,1,34.18-34.18l1.24,0a30.76,30.76,0,0,0-30.54-26.07m-3.1,64.95h-.15a34.18,34.18,0,1,1,37.27-37.25,1.62,1.62,0,0,1-1.78,1.77,29,29,0,0,0-2.94-.16A31,31,0,0,0,33.26,163.4c0,.92.05,1.89.15,2.95A1.61,1.61,0,0,1,32,168.12h-.16"/></g></g></svg>