<svg id="圖層_1" data-name="圖層 1" xmlns="http://www.w3.org/2000/svg" xmlns:xlink="http://www.w3.org/1999/xlink" viewBox="0 0 99.21 198.43"><defs><style>.cls-1{fill:none;}.cls-2{clip-path:url(#clip-path);}.cls-3{fill:#706b66;}.cls-3,.cls-5{fill-rule:evenodd;}.cls-4{clip-path:url(#clip-path-2);}.cls-5{fill:#ee86a1;}</style><clipPath id="clip-path"><rect class="cls-1" width="99.21" height="99.21"/></clipPath><clipPath id="clip-path-2"><rect class="cls-1" y="99.21" width="99.21" height="99.21"/></clipPath></defs><title>icon-pie</title><g class="cls-2"><path class="cls-3" d="M85.46,64.34A11.47,11.47,0,0,1,77,61.09a1.62,1.62,0,0,0-1.22-.55h-.06a1.65,1.65,0,0,0-1.24.65,9.28,9.28,0,0,1-13.06.89,12.45,12.45,0,0,1-.89-.89,1.63,1.63,0,0,0-1.24-.65,1.5,1.5,0,0,0-1.28.55,11.47,11.47,0,0,1-8.43,3.25,11.44,11.44,0,0,1-8.43-3.25,1.52,1.52,0,0,0-1.29-.56,1.65,1.65,0,0,0-1.24.65,8.68,8.68,0,0,1-7,3.16,8.69,8.69,0,0,1-7-3.16,1.63,1.63,0,0,0-1.24-.65,1.5,1.5,0,0,0-1.28.55,11.46,11.46,0,0,1-8.43,3.25c-5.3,0-9.78-3-9.78-6.5,0-2.84,2.89-6.42,7-7.24A1.62,1.62,0,0,0,12.28,49c1.79-15.69,18.15-27.56,37.33-27.56S85.1,33.31,86.92,49a1.64,1.64,0,0,0,1.3,1.62c4.13.82,7,4.4,7,7.24,0,3.52-4.46,6.5-9.77,6.5m-9.77,13H23.53A11.4,11.4,0,0,1,12.19,67.26c.51,0,1,.07,1.56.07a15.35,15.35,0,0,0,9.57-3.11,12.78,12.78,0,0,0,16.72,0,15.33,15.33,0,0,0,9.57,3.11,15.35,15.35,0,0,0,9.57-3.11,12.77,12.77,0,0,0,16.71,0,15.35,15.35,0,0,0,9.57,3.11c.53,0,1.05,0,1.56-.07A11.4,11.4,0,0,1,75.69,77.39M98.5,57.58c0-4.1-3.42-7.73-8.47-9.13C87.51,31.33,70.37,18.57,49.61,18.57S11.7,31.33,9.18,48.44c-5,1.41-8.47,5-8.47,9.14s3.39,7.6,8.18,9a14.66,14.66,0,0,0,14.64,14H75.69a14.65,14.65,0,0,0,14.63-14c4.79-1.44,8.18-5,8.18-9"/><path class="cls-3" d="M51.73,46.74V37.17c0-.88-.95-1.6-2.12-1.6s-2.13.72-2.13,1.6v9.57c0,.88,1,1.59,2.13,1.59s2.12-.71,2.12-1.59m12.54-1.42A1.63,1.63,0,0,0,66.58,43l-6.94-6.94,0,0a1.64,1.64,0,0,0-2.3,2.33l0,0,6.94,6.93Zm-22.35-7A1.64,1.64,0,0,0,39.6,36l-7,7A1.64,1.64,0,0,0,35,45.32l7-7Z"/></g><g class="cls-4"><path class="cls-5" d="M85.46,163.55A11.43,11.43,0,0,1,77,160.3a1.62,1.62,0,0,0-1.22-.55h-.06a1.65,1.65,0,0,0-1.24.65,9.28,9.28,0,0,1-13.06.89,10.68,10.68,0,0,1-.89-.89,1.63,1.63,0,0,0-1.24-.65,1.5,1.5,0,0,0-1.28.55,11.47,11.47,0,0,1-8.43,3.25,11.44,11.44,0,0,1-8.43-3.25,1.54,1.54,0,0,0-1.29-.56,1.65,1.65,0,0,0-1.24.65,8.65,8.65,0,0,1-7,3.16,8.67,8.67,0,0,1-7-3.16,1.63,1.63,0,0,0-1.24-.65,1.5,1.5,0,0,0-1.28.55,11.42,11.42,0,0,1-8.43,3.25c-5.3,0-9.78-3-9.78-6.5,0-2.84,2.89-6.41,7-7.24a1.62,1.62,0,0,0,1.3-1.56c1.79-15.68,18.15-27.56,37.33-27.56s35.49,11.84,37.31,27.51a1.63,1.63,0,0,0,1.3,1.62c4.13.83,7,4.4,7,7.24,0,3.52-4.46,6.5-9.77,6.5m-9.77,13.06H23.53a11.42,11.42,0,0,1-11.34-10.14c.51,0,1,.08,1.56.08a15.36,15.36,0,0,0,9.57-3.12,12.78,12.78,0,0,0,16.72,0,15.34,15.34,0,0,0,9.57,3.12,15.36,15.36,0,0,0,9.57-3.12,12.77,12.77,0,0,0,16.71,0,15.36,15.36,0,0,0,9.57,3.12c.53,0,1.05,0,1.56-.08a11.42,11.42,0,0,1-11.33,10.14M98.5,156.79c0-4.1-3.42-7.73-8.47-9.13-2.52-17.12-19.66-29.88-40.42-29.88S11.7,130.54,9.18,147.66c-5,1.4-8.47,5-8.47,9.13s3.39,7.6,8.18,9a14.66,14.66,0,0,0,14.64,14H75.69a14.65,14.65,0,0,0,14.63-14c4.79-1.45,8.18-5,8.18-9.05"/><path class="cls-5" d="M51.73,146v-9.57c0-.88-.95-1.59-2.12-1.59s-2.13.71-2.13,1.59V146c0,.88,1,1.59,2.13,1.59s2.12-.71,2.12-1.59m12.54-1.42a1.63,1.63,0,0,0,2.31-2.31l-6.94-6.93,0,0a1.63,1.63,0,1,0-2.3,2.32l0,0,6.94,6.93Zm-22.35-7a1.64,1.64,0,1,0-2.32-2.32l-7,7A1.64,1.64,0,0,0,35,144.53l7-7Z"/></g></svg>