<svg id="圖層_1" data-name="圖層 1" xmlns="http://www.w3.org/2000/svg" xmlns:xlink="http://www.w3.org/1999/xlink" viewBox="0 0 90 30"><defs><style>.cls-1{fill:none;}.cls-2{clip-path:url(#clip-path);}.cls-3{clip-path:url(#clip-path-2);}.cls-4{clip-path:url(#clip-path-3);}.cls-5{fill:#ee86a1;}.cls-6{clip-path:url(#clip-path-4);}.cls-7{clip-path:url(#clip-path-5);}.cls-8{clip-path:url(#clip-path-6);}.cls-9{clip-path:url(#clip-path-7);}.cls-10{clip-path:url(#clip-path-8);}.cls-11{clip-path:url(#clip-path-9);}</style><clipPath id="clip-path"><rect class="cls-1" x="30" width="30" height="30"/></clipPath><clipPath id="clip-path-2"><path class="cls-1" d="M48,11c0,.17,0,.35,0,.53A11.51,11.51,0,0,1,36.29,23,11.83,11.83,0,0,1,30,21.19c.32,0,.65,0,1,0a8.4,8.4,0,0,0,5.1-1.73,4.09,4.09,0,0,1-3.84-2.81,4,4,0,0,0,.77.08,4.46,4.46,0,0,0,1.09-.14,4.08,4.08,0,0,1-3.3-4v0a4.17,4.17,0,0,0,1.86.5,4,4,0,0,1-1.27-5.39A11.73,11.73,0,0,0,39.85,12a4.06,4.06,0,0,1,4-5,4.15,4.15,0,0,1,3,1.27,8.17,8.17,0,0,0,2.61-1,4.08,4.08,0,0,1-1.8,2.24A8.43,8.43,0,0,0,50,8.89,8.35,8.35,0,0,1,48,11Z"/></clipPath><clipPath id="clip-path-3"><rect class="cls-1" x="-1083.01" y="-943.01" width="1440" height="3310"/></clipPath><clipPath id="clip-path-4"><rect class="cls-1" x="60" width="30" height="30"/></clipPath><clipPath id="clip-path-5"><path class="cls-1" d="M85,8.5a1,1,0,1,1-1,1A1,1,0,0,1,85,8.5Zm-5.42,3A3.66,3.66,0,0,0,76,15.06a3.41,3.41,0,0,0,3.42,3.42A3.66,3.66,0,0,0,83,14.92a3.41,3.41,0,0,0-3.42-3.42Zm-.08-2A5.5,5.5,0,1,1,74,15,5.7,5.7,0,0,1,79.5,9.5ZM75,6.5a4,4,0,0,0-4,4v9a4,4,0,0,0,4,4h9a4,4,0,0,0,4-4v-9a4,4,0,0,0-4-4Zm0-2h9a6,6,0,0,1,6,6v9a6,6,0,0,1-6,6H75a6,6,0,0,1-6-6v-9A6,6,0,0,1,75,4.5Z"/></clipPath><clipPath id="clip-path-6"><rect class="cls-1" x="-1084" y="-942.5" width="1440" height="3310"/></clipPath><clipPath id="clip-path-7"><rect class="cls-1" width="30" height="30"/></clipPath><clipPath id="clip-path-8"><path class="cls-1" d="M7,15H5v9H2V15H0V12H2V10c0-1.47-.29-4,3-4H8V9H6a1,1,0,0,0-1,1v2H8Z"/></clipPath><clipPath id="clip-path-9"><rect class="cls-1" x="-1085" y="-941" width="1440" height="3310"/></clipPath></defs><title>icon3</title><g class="cls-2"><g class="cls-3"><g class="cls-4"><rect class="cls-5" x="25" y="2" width="30.01" height="26"/></g></g></g><g class="cls-6"><g class="cls-7"><g class="cls-8"><rect class="cls-5" x="64" y="-0.5" width="31" height="31"/></g></g></g><g class="cls-9"><g class="cls-10"><g class="cls-11"><rect class="cls-5" x="-5" y="1" width="18" height="28"/></g></g></g></svg>