<svg id="圖層_1" data-name="圖層 1" xmlns="http://www.w3.org/2000/svg" xmlns:xlink="http://www.w3.org/1999/xlink" viewBox="0 0 39.69 19.84"><defs><style>.cls-1{fill:none;}.cls-2{clip-path:url(#clip-path);}.cls-3{clip-path:url(#clip-path-2);}.cls-4{clip-path:url(#clip-path-3);}.cls-5{fill:#999899;}.cls-6{clip-path:url(#clip-path-4);}.cls-7{clip-path:url(#clip-path-5);}.cls-8{clip-path:url(#clip-path-6);}</style><clipPath id="clip-path"><rect class="cls-1" x="19.84" width="19.84" height="19.84"/></clipPath><clipPath id="clip-path-2"><path class="cls-1" d="M35.52,18.83a2.75,2.75,0,1,1,2.75-2.75,2.73,2.73,0,0,1-2.75,2.75ZM24,12.58a2.75,2.75,0,1,1,2.75-2.75A2.73,2.73,0,0,1,24,12.58ZM35.52.83a2.75,2.75,0,1,1-2.75,2.75A2.75,2.75,0,0,1,35.52.83Zm0,11.5a3.76,3.76,0,0,0-3,1.45l-5.07-2.52a3.82,3.82,0,0,0,0-2.86l5.07-2.53A3.61,3.61,0,1,0,32.05,5L27,7.53a3.75,3.75,0,1,0,0,4.59l5.07,2.53a3.75,3.75,0,1,0,3.47-2.32Z"/></clipPath><clipPath id="clip-path-3"><rect class="cls-1" x="19.27" y="-0.17" width="20" height="21"/></clipPath><clipPath id="clip-path-4"><rect class="cls-1" width="19.84" height="19.84"/></clipPath><clipPath id="clip-path-5"><path class="cls-1" d="M14.92,10.92h-6v-6h1v5h5Zm-5-9a8,8,0,1,0,8,8A8,8,0,0,0,9.92,1.91Zm0,17a9,9,0,1,1,9-9A9,9,0,0,1,9.92,18.92Z"/></clipPath><clipPath id="clip-path-6"><rect class="cls-1" x="-553.08" y="-242.08" width="1440" height="2476"/></clipPath></defs><title>未命名-4</title><g class="cls-2"><rect class="cls-1" x="19.84" width="19.84" height="19.84"/><g class="cls-3"><g class="cls-4"><rect class="cls-5" x="15.26" y="-4.99" width="29.02" height="29.83"/></g></g></g><g class="cls-6"><g class="cls-7"><g class="cls-8"><rect class="cls-5" x="-4.08" y="-4.08" width="28" height="28"/></g></g><rect class="cls-1" width="19.84" height="19.84"/></g></svg>