<svg id="圖層_1" data-name="圖層 1" xmlns="http://www.w3.org/2000/svg" xmlns:xlink="http://www.w3.org/1999/xlink" viewBox="0 0 90 30"><defs><style>.cls-1{fill:none;}.cls-2{clip-path:url(#clip-path);}.cls-3{clip-path:url(#clip-path-2);}.cls-4{fill:#9b9b9b;}.cls-5{clip-path:url(#clip-path-3);}.cls-6{clip-path:url(#clip-path-4);}.cls-7{clip-path:url(#clip-path-5);}.cls-8{clip-path:url(#clip-path-6);}</style><clipPath id="clip-path"><rect class="cls-1" x="60" width="30" height="30"/></clipPath><clipPath id="clip-path-2"><path class="cls-1" d="M87,14.05v-3H84v3H81v3h3v3h3v-3h3v-3Zm-18,0v3s3.64-.22,5.06-.22c-.77,2.31-2,3.57-4.93,3.57a5.35,5.35,0,0,1,0-10.69A5.25,5.25,0,0,1,72.67,11c.75-.74.69-.85,2.6-2.62a9.06,9.06,0,1,0-6.14,15.66c7.53,0,9.48-5.7,8.87-10Z"/></clipPath><clipPath id="clip-path-3"><rect class="cls-1" x="30" width="30" height="30"/></clipPath><clipPath id="clip-path-4"><path class="cls-1" d="M53,11c0,.17,0,.35,0,.53A11.49,11.49,0,0,1,41.29,23,11.83,11.83,0,0,1,35,21.19c.32,0,.64,0,1,0a8.37,8.37,0,0,0,5.1-1.73,4.09,4.09,0,0,1-3.83-2.81,3.94,3.94,0,0,0,.77.08,4.32,4.32,0,0,0,1.08-.14,4.06,4.06,0,0,1-3.29-4v0a4.17,4.17,0,0,0,1.86.5,4,4,0,0,1-1.83-3.36,3.93,3.93,0,0,1,.56-2A11.73,11.73,0,0,0,44.85,12a3.56,3.56,0,0,1-.1-.92,4.06,4.06,0,0,1,4.1-4,4.17,4.17,0,0,1,3,1.27,8.17,8.17,0,0,0,2.61-1,4.08,4.08,0,0,1-1.8,2.24A8.36,8.36,0,0,0,55,8.89,8.31,8.31,0,0,1,53,11Z"/></clipPath><clipPath id="clip-path-5"><rect class="cls-1" width="30" height="30"/></clipPath><clipPath id="clip-path-6"><path class="cls-1" d="M18,15H16v9H13V15H11V12h2V10c0-1.47-.29-4,3-4h3V9H17a1,1,0,0,0-1,1v2h3Z"/></clipPath></defs><title>social_icon</title><g class="cls-2"><g class="cls-3"><rect class="cls-4" x="55" y="0.94" width="40" height="28.12"/></g></g><g class="cls-5"><g class="cls-6"><rect class="cls-4" x="30" y="2" width="30.01" height="26"/></g></g><g class="cls-7"><g class="cls-8"><rect class="cls-4" x="6" y="1" width="18" height="28"/></g></g></svg>