<?xml version="1.0" encoding="utf-8"?>
<!-- Generator: Adobe Illustrator 16.0.0, SVG Export Plug-In . SVG Version: 6.00 Build 0)  -->
<!DOCTYPE svg PUBLIC "-//W3C//DTD SVG 1.1//EN" "http://www.w3.org/Graphics/SVG/1.1/DTD/svg11.dtd">
<svg version="1.1" id="圖層_1" xmlns="http://www.w3.org/2000/svg" xmlns:xlink="http://www.w3.org/1999/xlink" x="0px" y="0px"
	 width="196.9px" height="181px" viewBox="0 0 196.9 181" enable-background="new 0 0 196.9 181" xml:space="preserve">
<g id="g2537" transform="translate(8.0000213,-8.0007263)">
	<path id="path45" fill="#2A3E92" d="M151.8,85.8c1.3,2,1.2,4.7,1.5,7.1c-0.1,5,0.4,11-0.5,16.2c-0.4,2.1-1.9,4.3-4.1,5.1
		c-3.5,1.6-8.3,1.1-11.6-0.7c-2.7-1.9-3.1-5.2-3.4-8.3c-0.3-6.1-0.7-12.5,1-18.1c1.3-3.4,4.9-4.3,8.2-4.6
		C146.4,82.4,149.7,83,151.8,85.8z"/>
	<path id="path47" fill="#2A3E92" d="M-8,189V8h196.9v181H-8z M95.9,29.6c-2.4-0.3-5.3-0.4-7.9-0.1c-1-0.1-2.1,0-3.3,0.1
		C63.5,31.3,44,42.4,31.8,61.2c0.9-0.1,1.9,0.3,2.8-0.1c2.1-3,4.5-5.9,7.2-8.7c2.3-2.2,4.4-4.3,6.9-5.9c2.3,1.5,4.9,2.7,7.1,4.2
		c-2.7,3.4-5.6,6.9-7.6,10.6c0.6,0.3,1.8,0.2,2.6,0c2.2-3.3,4.6-6.5,7.4-9.4c3.8,1.4,7.5,2.9,11.4,4L70,56l-2.2,5.1
		c1,0.2,1.6,0.1,2.6,0c0.8-1.5,1.4-3.2,2.3-4.7c5.1,1.1,10.5,1.8,16,1.9c0.7,0.6,0.2,1.9,0.4,2.7h2.4c0.3-0.9-0.1-1.9,0.3-2.6
		c5.1-0.3,10.5-0.8,15.5-2l0.4,0.1l2.4,4.6c0.8,0,1.9,0.2,2.5-0.2l-2.2-5.1l0.2-0.2c4.1-1.1,7.9-2.6,11.7-4.2
		c2.7,2.9,5.3,6.4,7.6,9.7c1,0,1.9,0.1,2.6-0.2c-1.1-1.9-2.4-3.9-3.8-5.6c-1.1-1.7-2.4-3.2-3.9-4.8v-0.4l6.2-3.6l0.9-0.4
		c5.4,4.2,10.2,9.2,14,14.7c1.1,0,1.9,0.4,2.8-0.1c-11.8-18-31.4-29.6-52.5-31.3L96,29.8L95.9,29.6z M105,33.6v0.2
		c-7.7,5.7-20.1,6.2-28.3,1c-0.4-0.4-1.3-0.5-1.4-1.1C84.6,31.4,95.7,31.2,105,33.6z M129.2,44.4l-0.2,0.4l-6.1,3.4h-0.4
		c-4.7-4.8-10.2-8.9-15.7-12.2c0.2-0.6,1.1-1.1,1.7-1.5C115.9,36.4,122.9,39.8,129.2,44.4z M73.6,36c-5.5,3.4-10.9,7.5-15.8,12.5
		c-2.4-0.9-4.6-2.2-6.7-3.7v-0.2c5.6-4.2,11.7-7.2,18.3-9.4c0.3-0.3,0.4-0.5,0.8-0.5v0.2c0.7,0.2,1.2-0.6,1.9-0.1
		C72.5,35.2,73.2,35.6,73.6,36z M120,49.3l-0.2,0.3c-3.4,1.5-7,2.9-10.8,3.7c-2.7-4.7-5.7-9.4-9.1-13.9c1.2-0.7,2.7-1.2,4.1-1.9
		C109.7,40.4,115.3,44.6,120,49.3z M80.2,39.3L80,40c-3.4,4.2-6,8.8-8.7,13.3L71,53.4c-3.6-1-7.2-2.1-10.5-3.6l0.2-0.5
		c4.9-4.7,10-8.6,15.6-11.6C77.6,38.2,78.9,38.6,80.2,39.3z M88.8,40.9c0.3,4.6,0.1,9.9,0.1,14.7c-2.5,0.4-4.7-0.1-7.2-0.3
		c-2.4-0.4-5.4-0.6-7.8-1.4c2.6-4.9,5.6-9.5,9.2-13.9L88.8,40.9z M97.1,40.2c3.4,4.4,6.8,8.9,9.1,13.8c-4.8,1.1-9.6,1.8-14.6,1.8
		c-0.2-4.7-0.1-9.9,0-14.7C93.4,40.8,95.3,40.5,97.1,40.2z M89.9,70.3c-9.7-4.2-23.3-4.6-32.1,1.9c-5.7,4.2-7.5,11.8-6,18.5
		c1.1,6.4,7.2,11,12.9,13.2c7.9,2.8,16.1,4.9,24,7.6c0.8,0.4,1.9,1.1,1.7,2.1c0,0.8-0.8,1.2-1.4,1.6c-8.3,2.3-17.3,0.5-23.3-5.8
		c-0.7-0.9-1.1-1.9-1.9-2.8l-11.9,0.1c-0.2,7.2-0.3,15.4,0,22.4l13.2-0.1l0.2-4.2c1.5,0.7,3,1.6,4.5,2.4c9.2,3.9,21,4.8,30.1,0
		c6.6-3.7,10.2-10.9,9.2-18.5c-1-7.5-8-14.3-15.2-16.2l-21.4-6.3L71,85.4c-0.7-0.6-1.1-1.4-1-2.4c1.7-2.9,5.6-2,8.5-1.9
		c6.2,0.9,12.5,3,16.2,8.7c3.9,0,8.4,0.1,12.6-0.1c0.2-7.2-0.1-13.6-0.2-20.9c-4-0.1-8.8-0.1-12.8,0.1c-0.2,1.1,0.2,2.6-0.3,3.6
		L89.9,70.3z M164.8,73.1c-11.5-7.4-29-7.9-40.8-1.2c-6.4,3.4-10.7,10-12,16.8c-2.4,11.2-1.8,24.6,6.7,32.9
		c9.9,8.8,24.3,10.8,37.1,7.2c0.6-0.1,2.5-0.6,3.9-1.3l0.4-0.2c4-1.7,7.8-4.4,10.6-8.1c6.5-9.7,7-24.3,3-35.2
		C172.1,79.6,168.8,75.8,164.8,73.1z M14.8,67.8l-5.5,0.1c-0.1,4.7-0.1,10.2,0,14.9c3,0.1,5.8,0,8.7,0.3v30l-0.1,1.2l-8.7,0.2
		c-0.2,4.9-0.2,9.7,0,14.6h38.9v-14.6c-2.9-0.2-6.2,0.1-9-0.3l0.1-31l0.2-0.3l8.7-0.1c0.1-5,0.2-10.4-0.1-15L14.8,67.8z M70.8,135.6
		c-0.9,0-1.9-0.2-2.5,0.1l2.2,5.2l-0.3,0.3c-4,1.1-7.9,2.6-11.7,4.2l-0.4-0.2c-2.5-2.7-4.9-5.7-6.8-8.7c-0.4-1.5-2.2-0.6-3.2-0.8
		c2.1,3.9,4.9,7.3,7.8,10.9c-2.4,1.4-4.8,3-7.2,4.2c-5.3-4.1-10.2-9.4-14-14.9c-1.1-0.2-1.8-0.1-2.8,0c6.4,10.1,16.3,18.9,26.6,24.1
		c0,0,0-0.1,0.1-0.1c0.1,0,0.3,0.2,0.1,0.3c7,3.4,14.4,5.9,22.3,7c27.1,3.6,53-8.1,68-31.3c-0.8-0.1-1.9-0.1-2.8,0
		c-3.7,5.4-8.4,10.6-13.5,14.7c-0.2,0.3-0.7,0.2-0.9-0.1c-2.2-1.4-4.6-2.6-6.7-4c2.8-3.4,5.6-6.9,7.7-10.7H130
		c-2.2,3.3-4.5,6.7-7.4,9.6c-3.9-1.6-7.4-3-11.4-4.1l-0.4-0.4c0.6-1.8,1.8-3.4,2.1-5.2h-2.4l-2.4,4.8c-5.2-1.1-11-1.8-16.2-2.1
		c-0.3-0.8,0.1-1.9-0.3-2.7h-2.3c-0.2,1.1,0.3,1.9-0.3,2.7c-5.5,0.3-10.8,0.9-15.9,1.9L70.8,135.6z M89.3,155.9
		c-1.9,0.4-3.9,0.4-5.7,0.9c-3.6-4.3-6.6-9-9.2-13.9l0.4-0.4c4.6-0.9,9.4-1.6,14.3-1.6L89.3,155.9z M106.7,142.8l0.1,0.3
		c-2.5,4.8-5.6,9.4-8.9,13.7c-1.5,0.2-2.9-0.4-4.4-0.5L92,156c-0.2-5.2-0.3-9.8,0-15C97,141.1,102,141.6,106.7,142.8z M71.8,143.6
		c2.6,4.9,5.7,9.4,8.9,14c-1.2,0.7-2.7,1.1-4,1.9c-5.8-2.9-11.4-7-16.1-11.8v-0.3c3.4-1.7,7.1-2.9,10.8-3.9L71.8,143.6z
		 M120.4,147.3c-2.8,3.3-6.4,6.1-9.8,8.5c-2,1.2-4.1,2.6-6.2,3.6l-3.8-1.7l0.3-0.6c3.2-4.3,6-8.7,8.5-13.4l0.3-0.2
		C113.4,144.4,117.1,145.6,120.4,147.3z M129.9,152.3c-4.9,4-10.7,6.6-16.5,8.8l-4.2,1.3c-0.7-0.4-1.3-0.9-1.9-1.4l0.2-0.3
		c5.7-3.4,10.8-7.4,15.6-12.3C125.4,149.5,127.7,150.8,129.9,152.3z M73.9,161.1c-0.4,0.5-1.1,1.1-1.8,1.4
		c-7.4-1.9-14.3-5.3-20.7-9.9v-0.3c2.1-1.3,4.2-2.7,6.5-3.7C63,153.6,68.2,157.4,73.9,161.1z M105.5,163.1c0.3,0.5-0.4,0.4-0.6,0.5
		c-9.4,2-19.8,2.1-29.1-0.2c-0.2-0.4,0.4-0.5,0.7-0.8C84.6,157.3,97.4,157.3,105.5,163.1z"/>
</g>
<g>
</g>
<g>
</g>
<g>
</g>
<g>
</g>
<g>
</g>
<g>
</g>
</svg>
