<?xml version="1.0" encoding="utf-8"?>
<!-- Generator: Adobe Illustrator 16.0.0, SVG Export Plug-In . SVG Version: 6.00 Build 0)  -->
<!DOCTYPE svg PUBLIC "-//W3C//DTD SVG 1.1//EN" "http://www.w3.org/Graphics/SVG/1.1/DTD/svg11.dtd">
<svg version="1.1" id="圖層_1" xmlns="http://www.w3.org/2000/svg" xmlns:xlink="http://www.w3.org/1999/xlink" x="0px" y="0px"
	 width="1158.792px" height="534.031px" viewBox="0 0 1158.792 534.031" enable-background="new 0 0 1158.792 534.031"
	 xml:space="preserve">
<g>
	<g>
		<g>
			<path fill="#F5F5F5" d="M1154.549,462.851c1.331-0.106,3.123-1.297,4.242-0.221c-0.81,1.927-2.265,3.792-4.242,4.69
				c-0.928,0.411-2.147,0.259-3.121,0.669c-1.854,0.761-2.834,2.693-4.456,4.017c-1.539,1.246-3.562,2.312-5.141,3.35
				c-1.517,0.985-3.719,3.007-5.578,1.554c0.146-2.609,2.925-2.581,3.579-4.688c-0.012-1.562-1.393-1.736-1.341-3.347
				c3.093-2.71,7.955-4.66,8.693-10.261c0.339-2.48-1.68-7.806,1.341-8.036c3.557-0.27,1.55,3.578,1.792,5.579
				c0.091,0.812,0.924,1.363,1.329,2.457C1152.386,460.569,1152.324,462.349,1154.549,462.851z"/>
			<path fill="#F5F5F5" d="M1132.906,476.239c-1.24,3.726-6.666,5.675-10.267,8.035c-1.099,0.729-2.001,2.379-3.348,2.896
				c-1.74,0.694-3.718,0.468-5.572,1.341c-2.948,1.387-5.162,4.097-7.811,5.805c-2.593,1.668-6.383,4.013-9.377,4.237
				c-3.302,0.253-9.398-1.872-5.352-4.907c1.752-1.309,5.472-2.847,7.364-3.789c6.345-3.188,15.271-5.329,20.526-9.155
				c2.971-2.159,5.658-4.453,8.482-6.244C1128.961,473.556,1131.338,475.974,1132.906,476.239z"/>
			<path fill="#F5F5F5" d="M1094.301,326.959c0.715-0.194,0.694,0.348,1.12,0.443c-0.271,3.19-2.18,5.276-6.253,4.915
				c-1.82-0.169-4.999-1.533-5.128-2.452C1083.584,326.659,1092.26,328.633,1094.301,326.959z"/>
			<path fill="#F5F5F5" d="M1083.37,342.133c1.61,0.457,8.778,5.529,6.468,7.805c-1.25,1.255-2.862-0.666-4.901-1.111
				c-2.732-0.597-4.828,0.129-6.694-1.341c-2.124-1.663-2.636-5.285-4.915-7.364c-1.148-1.048-4.191-2.457-6.241-2.233
				c-3.546,0.384-3.511,4.446-6.694,6.25c-3.05-0.327-4.853,0.558-7.146-0.227c-2.412-0.821-3.624-3.948-5.806-4.231
				c-2.265-0.309-7.634,3.651-8.475,0.221c-0.681-2.778,3.743-3.691,4.014-5.578c0.287-1.938-1.736-4.953-2.678-5.805
				c-0.934-0.845-2.248-0.913-3.348-1.56c-1.137-0.683-2.021-1.989-3.348-2.678c-4.671-2.44-11.811-1.447-13.607-5.357
				c-0.319-0.694,0.175-1.456-0.225-2.452c-0.484-1.223-2.282-1.618-2.902-2.678c-1.584-2.722-0.474-6.74,2.231-7.146
				c2.439-0.359,7.251,2.649,7.811,4.47c0.299,0.951-0.203,2.021,0,3.121c0.253,1.32,2.226,4.542,4.017,4.685
				c2.311,0.19,3.675-3.376,5.799-4.685c1.471-0.901,3.876-1.938,5.809-1.786c1.895,0.146,3.169,1.64,5.348,2.452
				c1.562,0.586,3.506,0.818,5.36,1.341c1.616,0.457,3.02,1.409,4.682,2.006c5.314,1.927,11.636,3.055,14.504,6.474
				c0.784,0.937,0.767,2.317,1.792,3.348c0.941,0.953,6.104,1.883,6.244,4.019c0.114,1.623-2.125,1.718-2.226,3.346
				C1078.033,338.69,1082.591,338.498,1083.37,342.133z"/>
			<path fill="#F5F5F5" d="M1036.284,475.793c-0.665,2.784-2.79,5.879-5.578,7.811c-2.012,1.402-8.414,4.231-9.146,0.226
				c-0.204-1.116,1.245-6.295,1.78-7.366c1.578-3.127,3.262-1.083,5.804-0.671C1031.752,476.215,1034.204,474.217,1036.284,475.793z
				"/>
			<path fill="#F5F5F5" d="M1018.878,151.345c0.907,2.677,1.526,5.314,2.236,7.81c-2.463,3.06-7.326,1.928-10.932,3.567
				c-1.697,0.772-2.165,3.59-3.799,4.018c-1.312,0.344-2.327-1.139-3.567-1.116c-3.205,0.062-4.771,5.364-8.705,4.018
				c-2.248,1.341,0.089,6.479-2.676,6.913c-1.967,0.31-3.049-2.231-4.243-3.792c-1.443-1.894-3.506-2.931-3.562-4.464
				c-0.061-1.589,3.201-4.249,4.231-5.353c1.269-1.358,3.758-3.889,5.354-4.244c2.975-0.653,5.994,0.288,8.262-0.665
				c1.953-0.834,2.067-3.911,3.121-4.688c0.896-0.66,1.915-0.479,2.682-0.891c2.069-1.121,4.306-4.981,3.122-8.925
				c-0.745-2.491-4.874-5.218-2.227-8.261c3.95,0.423,9.163,4.316,9.815,8.261c0.255,1.539-0.598,3.077-0.45,4.683
				C1017.621,149.142,1018.477,150.133,1018.878,151.345z"/>
			<path fill="#F5F5F5" d="M1019.774,127.019c-0.502,1.138-1.511,0.901-2.451,1.56c-0.913,0.644-1.996,2.689-3.121,2.902
				c-1.794,0.339-3.806-1.758-5.586-1.334c-2.09,0.496-0.867,2.101-1.56,4.011c-1.832-0.389-4.837-2.428-4.909-4.462
				c-0.049-1.279,1.611-2.068,2.013-3.567c0.659-2.552-1.054-3.837-2.013-6.25c-0.068-0.36,0.213-0.383,0.221-0.67
				c2.18-0.457,6.463,3.651,11.383,4.462C1016.929,124.195,1019.587,123.915,1019.774,127.019z"/>
			<path fill="#F5F5F5" d="M1011.524,353.515c0.226,1.854-3.01,1.64-3.348,0.439
				C1008.239,352.519,1011.125,352.068,1011.524,353.515z"/>
			<path fill="#F5F5F5" d="M995.897,108.277c2.211,1.167,7.562,3.815,3.793,6.25C997.408,113.681,995.031,110.796,995.897,108.277z"
				/>
			<path fill="#F5F5F5" d="M985.637,343.7c2.552-1.392,5.342-4.446,9.815-2.908c-0.979,2.778-4.344,2.722-6.469,4.018
				c-2.152,1.312-3.973,3.538-6.694,3.793c-0.209-0.396-0.5-0.695-0.896-0.896C981.382,345.215,983.869,344.647,985.637,343.7z"/>
			<path fill="#F5F5F5" d="M979.614,301.743c2.619,0.005,5.088-0.807,6.907,0.224c-0.338,5.58-8.992,1.337-14.719,2.233
				c-1.223,0.187-1.582,1.132-2.907,0.664c0.074-1.886,2.114-3.796,4.239-4.011C974.772,300.683,977.217,301.736,979.614,301.743z"
				/>
			<path fill="#F5F5F5" d="M981.838,308.656c0.254,3.089-3.961,3.431-5.133,5.811c1.854,2.833,2.575,6.795,4.688,9.364
				c-0.09,1.703,0.344,3.928-0.672,4.688c-4.49,0.861-6.907-7.212-8.705-10.036c-3.433,0.643-0.298,11.626-4.902,10.263
				c-2.26-0.672,0.028-3.81-0.451-6.244c-0.416-2.142-2.513-2.581-2.676-4.249c-0.129-1.375,1.516-2.834,2.007-4.237
				c0.709-2.024,0.258-5.917,2.676-6.019c1.194-0.056,2.796,2.508,3.571,2.672C974.909,311.243,978.075,307.952,981.838,308.656z"/>
			<path fill="#F5F5F5" d="M973.583,341.909c-0.821,1.69-5.408,0.878-5.797-0.672C968.567,339.479,973.201,340.008,973.583,341.909z
				"/>
			<path fill="#F5F5F5" d="M969.339,347.26c-0.259,0.333-0.557,0.631-0.884,0.897c-1.697-0.542-3.506-0.953-4.018-2.678
				C965.69,343.643,969.285,345.164,969.339,347.26z"/>
			<path fill="#F5F5F5" d="M963.316,341.682c-1.131,1.607-5.059-0.129-6.468,1.561c-2.322-0.057-4.659-0.085-5.133-2.006
				c0.669-1.634,2.784-0.511,4.461-0.669C958.872,340.324,962.601,338.432,963.316,341.682z"/>
			<path fill="#F5F5F5" d="M931.857,427.147c-0.017-1.971-1.251-3.707-1.566-5.797c-0.112-0.755,0.112-1.731,0-2.684
				c-0.147-1.381-0.83-2.53-0.67-3.348c0.31-1.476,2.033-1.634,2.461-2.9c0.7-2.081-0.855-2.413-0.896-4.908
				c-0.028-1.763,1.337-2.621,2.236-4.909c0.413-1.059,0.43-3.037,0.887-3.792c0.58-0.951,3.049-1.758,4.017-2.226
				c3.421-1.68,6.164-4.8,9.603-5.359c0.867-0.141,2.051,0.108,2.676,0c2.023-0.354,4.564-2.05,7.364-2.676
				c2.706-0.614,5.101-0.384,7.14-1.567c2.238-1.289,5.405-4.671,6.244-6.692c1.02-2.452,0.721-4.519,2.678-5.354
				c0.963-0.404,1.903,0.035,2.9-0.22c1.032-0.271,3.252-1.324,4.019-2.011c1.556-1.393,1.809-3.674,3.568-5.133
				c1.221-1.004,3.515-2.554,5.137-3.341c0.953-0.479,2.722-0.976,3.562-0.897c3.149,0.27,4.613,4.661,8.035,3.792
				c1.223-0.309,2.469-2.906,3.577-4.462c1.607-2.276,2.779-5.343,5.574-6.023c2.258-0.554,4.783,0.867,6.023-1.116
				c0.282-1.409-1.054-2.248,0-3.127c2.604,0.164,6.999,3.673,10.933,3.79c2.118,0.069,6.052-2.309,6.474,0.898
				c0.187,1.419-1.588,2.563-2.006,4.017c-0.299,1.025,0.439,1.579-0.225,2.678c-1.816,0.715-3.737,1.092-3.793,3.121
				c-0.068,2.547,3.601,3.741,5.797,5.139c1.511,0.952,2.768,2.412,3.574,2.896c0.687,0.405,1.774,0.597,2.23,0.891
				c1.449,0.941,2.475,3.071,4.47,3.128c2.265,0.055,4.53-2.835,5.797-5.586c1.483-3.212,1.567-7.111,2.227-10.485
				c0.225-1.128,1.025-2.227,1.342-3.347c0.861-3.051,2.028-7.174,4.682-8.256c2.665,2.822,3.574,8.312,3.133,12.95
				c1.78,1.352,4.915,0.901,5.348,4.017c0.152,1.076-0.534,2.452-0.444,3.562c0.152,1.88,1.55,3.526,1.791,5.133
				c0.445,2.975-0.496,5.426,0.885,7.589c1.742,2.729,5.156,2.638,7.365,5.585c-0.039,1.83,0.688,2.57,1.115,4.005
				c0.209,0.683,0.012,1.793,0.227,2.238c0.715,1.491,2.647,1.64,3.347,2.895c0.345,0.62,0.247,1.788,0.67,2.902
				c0.61,1.64,2.08,2.862,3.123,4.464c1.008,1.55,2.658,3.235,2.9,4.467c0.446,2.222-1.166,3.747-1.565,5.575
				c-0.479,2.219,0,5.082-0.885,7.364c-1.036,2.682-3.591,5.325-5.584,8.701c-1.636,2.777-3.86,5.905-6.249,7.81
				c-1.409,1.127-3.083,1.78-4.464,2.907c-2.136,1.74-3.888,4.002-5.799,6.023c-2.011,2.125-4.445,3.747-6.029,5.573
				c-2.292,2.655-3.431,6.936-7.358,7.366c-2.299,0.253-4.36,0.056-6.474,0.896c-3.304,1.312-5.495,3.73-7.134,3.793
				c-1.726,0.056-3.319-2.024-4.915-2.232c-1.786-0.23-3.189,1.354-5.799,1.337c-1.064-0.006-1.6-0.632-3.121-1.117
				c-3.189-1.008-6.694-0.968-7.14-4.458c-0.253-1.904,1.212-2.759,1.111-4.467c-0.098-1.702-1.766-2.13-2.458-3.568
				c0.439-1.536,0.512-3.477-1.116-4.468c-0.055-1.386,0.299-2.377,0.896-3.121c-1.295,0.551-3.003,0.896-4.467,1.792
				c-1.624,0.979-2.796,3.233-4.677,2.896c-1.765-0.62-0.411-2.374-0.672-3.792c-0.196-1.082-2.664-5.698-3.798-6.47
				c-1.289-0.884-6.012-2.658-7.585-2.908c-6.896-1.076-11.291,2.609-16.74,3.135c-1.397,0.129-2.919-0.236-4.233,0
				c-4.484,0.784-9.482,4.344-12.277,6.689c-4.615,0.457-9.292-0.947-14.061,0.451c-4.728,1.379-7.436,5.32-14.716,4.231
				c-1.444-1.24-4.008-1.854-4.02-4.013c-0.017-1.702,2.519-2.8,3.348-4.017c0.879-1.303,2.384-4.369,2.451-6.25
				c0.046-1.481-0.998-3.256-0.896-5.127C931.045,430.156,931.869,428.596,931.857,427.147z"/>
			<path fill="#F5F5F5" d="M928.065,334.097c1.217-0.169,2.125-1.069,3.348-1.108c2.598-0.103,5.173,1.92,8.248,1.553
				c0.672,0.723,0.215,1.32,0.232,2.463c2.609,1.392,6.891,1.137,8.248,3.787c-1.955,2.073-4.857,0.585-7.364,0.22
				c-2.265-0.321-4.677-0.163-7.14-0.444c-3.121-0.361-5.945-2.087-8.92-2.452c-1.809-0.226-3.657,0.259-5.359,0
				c-2.006-0.31-9.488-3.134-9.595-5.127c-0.108-2.058,3.368-2.639,6.469-2.239C920.243,331.275,922.92,334.814,928.065,334.097z"/>
			<path fill="#F5F5F5" d="M934.083,318.703c-1.686-0.473-3.268-0.214-4.005-0.671c-1.529-0.939-1.304-3.611-1.794-5.133
				c-0.49-1.539-2.343-2.36-3.34-4.462c-1.455-3.043-2.08-9.855,1.78-10.487c1.554-0.26,3.155,0.936,4.237,0.672
				c2.153-0.531,1.774-3.315,3.572-4.47c0.996-0.643,2.824-0.373,4.243-0.89c1.46-0.537,2.558-1.927,3.567-3.123
				c0.936-1.115,1.668-2.986,2.9-3.791c1.387-0.915,2.672-0.936,3.793-1.787c2.925-2.231,3.02-5.343,5.354-8.036
				c1.983-2.276,5.116,2.193,5.359,4.019c1.108,1.419,3.29,1.769,4.237,3.347c-1.312,3.927-5.021,4.266-4.237,9.815
				c0.129,0.907,0.744,2.587,1.341,3.798c0.637,1.306,2.523,2.716,2.451,3.566c-0.146,1.668-3.505,1.595-4.243,3.347
				c-0.677,1.622,0.05,1.73-0.221,4.237c-0.939,1.82-3.459,2.26-4.243,4.47c-0.941,2.653,0.142,6.084-2.004,8.035
				c-1.483-0.08-3.106,1.284-4.903,1.109c-1.955-0.179-3.82-2.862-6.927-2.902c-1.183-0.009-2.581,0.757-3.792,0.671
				C936.258,319.97,935.486,319.091,934.083,318.703z"/>
			<path fill="#F5F5F5" d="M919.645,313.738c5.676,0,5.676,8.81,0,8.81C913.966,322.547,913.966,313.738,919.645,313.738z"/>
			<path fill="#F5F5F5" d="M911.323,312.674c0.698,0.095,3.166,3.528,3.127,4.468c-0.078,1.573-2.438,1.487-3.127,3.568
				c-1.048,3.207,0.474,6.839-1.335,8.484c-1.014,0.614-2.846,0.43-4.462,0.441c-4.047-2.847-7.252-6.238-10.714-10.042
				c-1.255-1.38-2.788-2.581-3.571-4.019c-1.16-2.13-1.573-4.473-2.896-6.468c-1.172-1.751-3.319-3.003-4.468-4.907
				c-0.932-1.567-1.021-3.625-2.003-5.136c-0.922-1.401-2.478-2.004-3.577-3.126c-0.709-0.732-1.116-1.876-1.78-2.676
				c-2.805-3.359-8.199-5.111-8.475-10.042c1.143-1.307,2.322,0.49,4.458,0.896c1.385,0.261,3.021-0.112,4.017,0.221
				c2.027,0.681,3.426,3.848,5.578,5.578c1.206,0.97,2.779,1.64,4.012,2.676c1.325,1.11,2.293,2.699,3.349,3.348
				c1.453,0.89,3.466,1.476,5.357,2.684c2.581,1.639,7.186,3.345,7.812,6.698c0.152,0.829-0.39,2.236-0.227,2.891
				c0.311,1.172,1.792,1.68,2.678,2.678c1.098,1.244,1.324,3.104,2.9,3.352C909.548,314.679,909.621,312.454,911.323,312.674z"/>
			<path fill="#F5F5F5" d="M806,265.814c1.92,0.63,8.334,8.423,6.47,12.724c-0.53,1.223-2.741,2.796-4.908,2.451
				c-4.419-0.699-3.574-10.53-2.231-14.505C805.454,266.163,805.684,265.938,806,265.814z"/>
			<path fill="#F5F5F5" d="M657.61,378.732c0.197-1.797,1.478-4.745,2.901-5.81c2.059-1.527,4.841-1.37,6.919-2.452
				c1.714-0.896,4.088-2.377,5.354-4.017c1.076-1.393,1.134-2.98,2.012-4.019c0.598-0.715,1.95-0.907,2.67-1.78
				c0.649-0.79,0.509-2.253,1.567-3.122c3.099-1.325,3.988,4.35,4.468,8.249c0.141,1.217,0.772,2.52,0.66,3.123
				c-0.321,1.78-2.282,2.147-2.896,3.358c-0.152,4.89-2.073,9.139-3.799,13.155c-1.481,3.473-2.343,7.276-3.565,10.269
				c-0.445,1.087-1.381,1.938-1.782,2.896c-1.61,3.798-2.202,9.76-5.137,11.383c-1.054,0.58-5.13,1.577-6.25,1.561
				c-2.732-0.04-5.101-2.092-5.799-4.458c-0.378-1.269-0.005-2.592-0.225-4.019c-0.271-1.792-1.337-3.319-1.116-5.358
				c0.496-4.542,4.918-6.747,5.134-10.487C658.889,384.389,657.299,381.589,657.61,378.732z"/>
			<path fill="#F5F5F5" d="M550.057,61.192c0.26,3.741-5.72,3.274-6.475,6.474c-0.338,1.449,0.698,3.382,0.451,4.684
				c-0.457,2.344-2.722,1.662-5.579,2.902c-1.459,0.631-2.874,2.952-4.463,3.121c-1.471,0.158-2.367-0.856-3.348-0.664
				c-1.465,0.275-0.975,2.073-3.126,2.452c-1.714,0.298-4.711-1.533-4.909,0.67c-0.13,1.415,2.694,2.181,4.464,2.006
				c1.402-0.135,2.429-1.099,3.791-1.115c2.643-0.023,4.362,1.96,6.024,2.011c3.831,0.107,7.591-3.539,11.608-3.127
				c1.814,0.186,2.891,1.47,4.237,1.341c2.151-0.204,3.983-2.688,5.578-3.573c-0.676-3.758,0.062-8.717,3.572-8.925
				c2.412-0.141,6.03,4.124,6.469,0c0.192-1.792-1.903-3.376-3.347-3.348c-1.284,0.028-2.97,2.542-4.018,0.451
				c0.006-2.045,2.3-1.504,3.572-2.012c0.946-0.378,1.617-1.409,2.678-1.786c5.307-1.865,12.666,1.832,14.727-2.677
				c-4.709-4.017-12.728,1.466-18.075,1.117c-2.281-0.146-5.291-1.843-6.023-4.018c-0.23-0.688-0.039-1.611-0.226-2.896
				c-0.202-1.426-0.941-2.918-0.89-3.799c0.226-4.029,10.261-4.788,10.261-9.815c-1.915-1.838-7.533-1.528-9.371,0.445
				c-0.658,0.709-0.625,2.146-1.561,3.572c-2,3.049-8.464,3.41-10.486,7.139c-0.451,0.829-1.234,3.095-0.896,4.463
				C545.228,58.397,549.905,58.972,550.057,61.192z M496.948,279.428c-6.43-0.942-13.006,1.651-17.407,3.566
				c-2.541,1.11-5.128,2.802-7.364,2.902c-2.118,0.103-4.204-1.126-6.244-1.335c-2.659-0.276-6.068-0.021-8.705,0.444
				c-2.564,0.457-4.88,2.288-7.141,2.452c-4.327,0.327-8.44-3.899-11.157-6.023c-1.662-1.295-3.352-2.356-4.907-3.568
				c-1.668-1.306-3.832-2.095-5.133-3.347c-1.759-1.701-1.759-4.66-2.678-6.919c-1.087-2.66-4.395-4.615-6.919-7.14
				c-1.889-1.887-6.221-4.71-6.694-7.138c-0.237-1.24,0.529-2.671,0.445-4.018c-0.118-1.956-1.59-3.066-1.561-4.463
				c0.044-1.961,2.354-3.477,2.9-5.134c0.283-0.845,0.146-2.04,0.445-3.122c0.626-2.265,2.126-3.605,1.787-6.919
				c-0.136-1.319-1.268-2.524-1.341-4.237c-0.046-1.173,0.771-1.826,0.671-2.902c-0.17-1.905-2.644-2.276-2.902-4.463
				c-0.26-2.259,2.158-4.125,3.572-6.694c0.637-1.15,0.986-2.913,1.561-3.792c1.252-1.899,3.291-2.818,4.243-4.688
				c0.699-1.381,0.924-3.427,1.562-4.462c0.822-1.33,2.456-2.046,4.018-3.793c1.268-1.425,1.786-3.15,2.676-3.792
				c1.121-0.811,2.796-1.008,4.018-1.561c4.131-1.883,7.151-4.306,9.146-8.261c-0.608-3.589,0.309-5.105,1.786-7.584
				c1.363-2.294,2.36-4.486,4.688-5.805c2.79-1.578,5.41-1.724,7.359-4.682c0.975-1.482,2.44-4.041,2.458-5.579
				c0.021-2.209-2.266-5.038-4.238-5.359c-2.018-0.32-5.116,1.533-6.249-0.665c-0.36-0.705,0.135-2.35,0-3.127
				c-0.259-1.46-1.511-2.491-1.561-3.568c-0.107-2.096,2.062-4.276,2.676-6.693c0.835-3.292,0.028-5.81-0.226-9.596
				c3.122-4.92,10.054-2.48,16.963-2.012c1.036,0.073,2.225-0.248,3.346-0.22c4.097,0.095,7.32,1.33,8.7-2.231
				c0.52-1.341,0.981-6.328,0.671-7.59c-0.365-1.494-3.296-5.365-4.688-6.243c-2.214-1.41-5.427-0.795-6.693-3.348
				c1.03-4.407,5.967-0.738,8.925-1.786c1.511-0.535,1.341-3.15,2.683-3.573c0.913-0.287,2.079,0.919,3.348,0.896
				c1.081-0.022,4.998-1.989,6.023-2.682c1.426-0.964,1.864-2.964,3.122-3.792c0.851-0.557,1.972-0.49,2.902-0.89
				c1.897-0.817,4.299-2.479,5.578-4.018c1.843-2.209,2.671-4.947,4.907-5.353c2.993-0.546,9.76,0.592,10.268-2.682
				c0.479-3.116-2.744-5.567-1.562-8.926c0.936-2.654,3.319-2.187,6.695-3.792c1.627,1.155,1.154,4.457,1.336,6.474
				c2.072,0.017,6.293-0.614,6.693-2.457c0.501-2.299-3.021-4.638-3.792-6.024c-0.835-1.505-1.015-4.147-2.678-4.463
				c-3.397-0.654-6.699,4.683-10.937,4.683c-2.783,0-5.736-2.147-6.469-4.238c-0.418-1.194-0.039-2.321-0.226-3.572
				c-0.271-1.826-1.364-3.719-0.891-6.244c1.707-2.93,5.646-3.403,8.481-4.914c1.07-0.57,1.932-1.786,3.121-2.231
				c2.001-0.739,4.958,0.005,6.919-1.117c1.24-0.703,0.892-1.921,1.787-3.347c0.558-0.896,1.921-1.42,2.676-2.451
				c0.525-0.716,0.587-1.798,1.116-2.457c1.938-2.412,5.477-3.302,6.915-5.799c0.636-1.104-1.1-1.516-0.665-3.127
				c0.721-1.556,3.504-0.412,5.128-0.67c2.22-0.344,4.271-3.043,6.693-3.567c2.53-0.546,5.24-0.215,7.591-1.115
				c1.402-0.542,2.693-1.815,4.018-2.012c0.468-0.068,1.786,0.253,2.451,0.225c0.85-0.033,1.769-0.558,2.901-0.67
				c1.641-0.164,3.675,0.4,5.805,0.445c3.527,0.079,6.88-1.059,9.816,0.225c1.536,0.67,1.362,2.412,3.345,3.122
				c0.998,0.36,2.316-0.141,3.794,0c2.186,0.208,4.468,1.718,7.364,2.011c1.031,0.102,2.096-0.129,3.121,0
				c3.189,0.389,6.694,2.068,9.823,3.122c2.613,0.885,8.153,1.984,8.254,4.463c0.124,2.935-4.817,3.792-6.919,3.792
				c-3.511,0-8.159-2.052-11.822-0.891c0.055,5.048,5.504,8.87,10.487,8.255c0.438-2.372-2.818-1.053-2.457-3.347
				c2.225-1.679,4.89,1.126,8.035,0.67c1.227-0.332,1.02-2.107,1.335-3.348c2.653-1.612,5.978-3.978,10.042-2.231
				c0.202-0.395,0.5-0.693,0.896-0.891c0.265-2.451-2.678-3.73-1.116-6.029c0.778-1.583,4.938-1.037,5.578,0.225
				c0.321,1.51-1.03,1.347-0.896,2.678c0.789,1.78,2.609,2.061,3.573,2.011c2.191-0.118,2.625-2.079,4.688-3.127
				c0.833-0.423,2.057-0.467,3.121-0.891c1.263-0.501,2.334-1.516,3.348-1.786c0.743-0.197,1.865,0,2.901-0.225
				c1.318-0.282,2.711-1.341,3.793-1.335c1.347,0,2.309,1.555,4.017,1.786c0.93,0.124,1.989-0.529,3.348-0.67
				c1.094-0.119,2.225,0.129,3.123,0c2.13-0.31,3.594-1.431,5.357-1.341c1.245,0.068,3.381,1.746,4.237,0.896
				c1.443-1.432-1.927-2.496-0.885-3.798c3.42,0.258,7.057,0.18,10.487,0.67c5.099,0.727,9.899,3.251,14.498,3.347
				c-0.434-3.099-3.984-2.208-5.578-3.567c-0.485-0.417-2.48-3.685-2.451-4.688c0.011-0.502,2.525-4.795,3.123-5.354
				c1.966-1.848,8.417-1.836,10.26,0.666c1.263,1.713,0.845,4.294,2.676,4.242c1.579-0.044,2.418-3.921,4.244-4.018
				c1.51-0.079,2.275,2.486,3.792,2.457c1.849-0.039,3.134-3.482,5.58-3.573c1.317-0.05,1.757,0.677,3.79,0.891
				c1.398-0.896-0.466-2.08,0.227-3.347c2.495-1.814,8.193-0.435,11.377-1.562c0.891-1.059-1.134-1.809-0.221-2.902
				c2.75-1.921,7.372-2.096,12.055-2.896c2.862-0.491,5.561-2.479,7.803-2.683c2.346-0.208,4.582,1.375,6.695,1.341
				c1.285-0.022,2.778-0.411,4.019-0.89c1.255-0.49,2.113-1.708,3.351-2.011c1.957-0.48,4.43,0.23,6.695,0
				c2.395-0.243,4.509-1.173,6.243-0.891c1.623,0.259,2.926,1.989,4.464,2.231c4.7,0.732,9.552-0.705,13.833,0.445
				c0.767,0.209,1.538,1.003,2.457,1.341c2.868,1.048,4.823,0.721,5.359,4.238c2.254,0.8,3.577,2.868,6.244,3.572
				c1.78,0.468,3.571-0.226,5.578-0.226c2.636,0,6.012,0.102,8.254,0.445c1.28,0.198,2.334,1.139,3.574,1.342
				c0.901,0.146,2.096-0.096,3.12,0c1.398,0.129,2.653,0.705,3.793,0.67c2.339-0.073,4.113-2.159,6.023-2.457
				c1.026-0.157,2.391,0.366,3.347,0.445c3.761,0.316,8.093-0.49,11.159,0.226c1.639,0.382,4.44,2.187,6.249,3.567
				c1.312,1.002,2.107,2.598,3.346,3.347c1.173,0.71,4.147,1.983,5.359,1.787c1.427-0.226,1.487-1.814,2.896-2.452
				c4.43-0.986,12.284,1.409,15.847-0.225c1.379-0.636,1.108-2.096,2.23-2.901c6.695-0.327,13.366,0.276,19.637,0.445
				c2.205,0.062,4.481-0.564,6.477-0.221c2.208,0.385,3.819,2.599,6.018,3.347c1.464,0.497,4.045,0.237,6.249,0.671
				c1.479,0.288,2.693,1.178,3.791,1.336c2.385,0.338,4.661-0.265,6.927-0.445c5.115-0.412,11.692-0.682,16.734,1.341
				c2.684,1.077,3.81,3.251,6.688,3.567c4.126,0.457,10.511-0.338,14.73,0c1.008,0.085,1.95,0.501,2.676,0.445
				c1.415-0.102,2.277-1.302,4.019-1.335c2.209-0.051,5.726,3.442,8.932,2.901c1.381-0.935-1.11-2.237,0.213-3.126
				c1.257-1.043,2.977-0.012,4.915,0c1.054,0.01,2.351-0.536,3.347-0.445c2.452,0.213,4.779,2.417,7.81,3.121
				c2.405,0.564,5.715,0.772,8.707,0.451c2.142-0.236,3.979-0.958,6.022-0.67c0.987,0.136,1.866,0.851,2.897,1.116
				c0.952,0.241,1.883,0.011,2.678,0.22c0.743,0.203,1.481,0.902,2.236,1.116c4.146,1.188,9.669,1.774,14.059,3.127
				c2.581,0.794,5.219,2.395,7.364,2.451c1.056,0.034,1.995-0.457,3.348-0.445c6.74,0.045,14.669,2.852,14.049,9.151
				c-7.889,1.73-14.488-5.432-22.76-3.347c-1.318,0.332-2.784,1.78-2.672,3.121c0.306,3.888,10.104,3.562,10.926,7.365
				c-1.604,1.202-3.358,0.068-4.683,0.226c-2.012,0.237-5.403,2.361-6.694,3.567c-1.51,1.416-2.834,5.038-4.462,5.359
				c-1.995,0.389-5.038-1.967-8.035-1.341c-1.1,0.231-2.153,1.6-3.121,1.786c-2.463,0.468-5.598-1.341-7.134,1.562
				c0.81,2.04,0.315,4.88,2.004,6.024c1.088,0.744,2.452,0.169,3.793,0.67c1.567,0.586,2.435,2.497,3.787,3.572
				c1.11,0.874,2.293,0.897,2.907,2.007c0.141,1.645-0.654,1.826-0.45,2.901c0.35,1.872,3.274,2.294,3.347,3.568
				c0.101,1.611-1.843,1.268-2.225,2.901c-0.142,1.038,1.199,1.313,1.335,2.677c0.089,0.913-0.738,1.865-0.666,2.902
				c0.097,1.487,1.269,2.479,1.111,3.792c-0.13,1.126-1.111,2.005-2.013,2.456c-4.271-2.744-8.119-6.525-12.718-10.041
				c-4.705-3.607-12.166-8.036-12.938-15.62c-0.027-1.161,2.463-2.074,2.898-3.792c0.179-0.705-0.278-1.708-0.221-2.677
				c0.157-2.62,2.322-5.139,2.236-6.693c-0.106-1.708-3.29-4.88-4.914-5.36c-1.295,0.682-0.016,2.034-0.225,3.128
				c-0.259,1.346-1.893,2.991-3.348,3.122c-4.22,0.366-4.693-5.438-11.383-3.792c-1.73,0.428-4.163,3.037-3.565,6.249
				c0.184,0.975,2.868,2.023,2.676,3.347c-0.187,1.285-6.08,1.663-7.366,1.562c-3.6-0.288-5.452-2.981-8.699-2.902
				c-1.594,0.04-2.991,1.335-4.243,1.561c-7.027,1.285-17.457-3.459-19.852,2.677c-0.344,0.869-0.152,2.001-0.451,2.902
				c-0.434,1.291-1.46,2.305-1.785,3.126c-0.272,0.688-0.227,2.045-0.672,3.123c-0.405,0.975-4.625,4.784-0.89,5.804
				c0.89,0.237,1.307-0.383,2.457-0.226c1.915,0.259,5.104,3.336,7.358,3.346c1.347,0.006,3.212-1.514,4.239-1.56
				c2.067-0.101,3.561,1.234,5.131,2.007c1.501,0.737,3.795,2.288,4.915,2.23c2.107-0.107,1.1-1.566,3.123-2.23
				c3.858,1.144,5.667,5.233,9.368,8.48c1.343,1.171,3.326,2.18,5.136,3.792c1.008,0.901,4.111,3.318,4.242,4.462
				c0.118,1.065-0.869,1.522-1.122,2.457c-0.361,1.358,0.485,2.355-0.444,3.347c-3.561-1.318-4.361-4.829-6.92-7.81
				c-0.946-1.109-1.899-2.428-3.341-4.018c-0.654-0.715-3.021-3.229-4.47-2.676c-2.806,1.064,1.539,5.318,2.232,6.249
				c1.482,1.967,3.448,4.615,3.578,6.694c0.083,1.33-0.867,3.747-0.896,6.023c-0.017,1.539,0.389,2.936,0.225,4.237
				c-0.169,1.308-1.097,2.802-1.565,4.244c-0.524,1.634-0.643,3.589-1.11,4.683c-0.867,2.011-3.786,4.378-5.811,4.463
				c-1.852,0.079-2.646-1.427-4.462-1.336c-2.744,0.129-3.252,2.659-4.902,4.682c0.141,2.198,0.829,2.953,0.444,4.464
				c-0.603,2.367-3.893,2.777-3.792,5.133c0.092,2.181,3.009,2.604,4.458,3.573c1.995,1.324,5.478,4.272,7.37,6.694
				c1.24,1.589,3.031,4.559,2.902,6.244c-0.17,2.209-6.525,5.28-9.158,4.463c-2.495-0.772-1.639-3.155-2.225-5.353
				c-0.457-1.691-1.78-2.417-2.45-3.792c-0.357-0.722-0.193-1.865-0.677-2.677c-1.347-2.271-3.697-1.031-6.476-2.458
				c-1.818-0.935-1.29-2.901-2.005-4.688c-0.959-2.4-5.004-3.533-8.251-2.896c-2.389,0.461-3.132,2.468-5.359,2.896
				c-3.272-1.938,0.672-6.723-3.345-7.139c-3.077-0.321-5.118,4.417-6.921,5.803c-1.218,0.93-3.426,1.122-3.566,2.452
				c-0.265,2.462,2.598,1.961,4.901,2.902c2.092,0.856,2.333,3.223,4.243,3.347c1.596,0.107,2.654-1.646,4.239-1.786
				c2.742-0.243,4.97,0.992,6.692,2.012c-1.114,2.704-7.122,4.688-7.14,8.255c-0.01,2.068,2.396,2.424,4.243,3.792
				c1.556,1.156,3.608,4.418,5.799,6.695c0.947,0.98,2.48,1.628,2.908,2.232c1.03,1.476,0.867,3.273,2.001,4.243
				c0.191,1.222-0.558,1.521-0.445,2.676c0.552,1.606,3.021,1.302,3.571,2.902c-0.456,3.848,1.146,7.471-2.006,8.926
				c-1.453,6.902-3.093,12.301-7.81,16.065c-4.243,3.375-9.844,4.372-14.954,6.023c-1.326,0.428-2.385,1.825-3.568,2.231
				c-2.969,1.009-8.256,0.395-8.475,4.018c-0.124,1.787,2.266,2.863,2.451,4.684c0.282,2.794-2.219,5.605-4.019,5.803
				c-1.295,0.141-4.089-0.761-4.243-3.127c-0.175-2.66,3.302-3.748,3.574-5.353c0.474-2.841-2.451-5.607-5.799-5.354
				c-2.948,0.22-9.652,6.137-9.815,9.372c-0.13,2.417,4.788,7.448,6.468,8.925c6.267,5.522,12.922,8.835,11.822,22.313
				c-1.565,3.415-5.566,4.143-8.699,6.024c-2.385,1.431-3.574,5.872-7.591,6.25c-1.612-0.552-0.671-3.071-1.116-4.238
				c-0.608-1.6-3.804-2.383-5.799-4.017c-1.634-1.342-2.32-3.455-3.571-4.689c-1.562-1.538-3.896-1.859-5.805-2.901
				c-1.2-0.655-2.136-2.953-3.348-2.897c-1.967,0.079-1.284,1.972-1.78,5.127c-0.496,3.104-2.762,5.489-2.012,9.151
				c0.315,1.5,2.187,2.711,3.121,4.237c1.55,2.531,1.765,5.479,3.349,6.92c1.046,0.953,2.828,1.161,4.017,2.007
				c2.366,1.691,6.531,5.354,7.366,7.366c0.969,2.349,0.032,5.116,0.67,7.589c0.743,2.856,4.48,4.903,2.236,7.811
				c-2.136-0.396-3.999-1.793-5.809-2.902c-3.065-1.897-4.475-3.534-6.47-6.694c-0.586-0.924-1.453-1.826-1.786-2.676
				c-0.778-2.001-0.608-4.266-1.335-6.695c-0.626-2.09-3.049-5.394-4.915-7.146c-1.565-1.476-4.344-2.337-4.462-4.461
				c-0.163-2.994,1.015-6.515,0.896-10.043c-0.028-0.761-0.546-1.527-0.666-2.451c-0.235-1.713,0.17-3.81-0.23-5.359
				c-0.366-1.425-1.403-2.71-2.006-4.012c-0.598-1.285-1.206-2.575-1.78-4.243c-0.907-2.58-1.923-7.556-4.019-7.811
				c-2.236-0.27-4.446,4.193-7.364,4.243c-1.499,0.023-3.494-1.177-3.792-2.681c-0.282-1.37,0.703-2.75,0.669-4.237
				c-0.084-2.993-2.208-4.148-3.796-6.25c-0.643-0.85-0.812-2.045-1.343-2.677c-1.014-1.211-2.952-1.888-4.237-3.121
				c-1.223-1.185-2.563-2.886-3.127-4.019c-0.861-1.747-1.139-4.013-2.451-4.242c-1.258-0.22-2.71,1.582-4.017,2.011
				c-1.36,0.445-4.7,1.021-6.025,1.115c-4.479,0.311-8.113-0.884-7.585,4.464c-0.698,2.4-3.233,2.428-4.912,3.567
				c-2.137,1.453-3.691,4.366-6.023,6.693c-1.134,1.139-2.773,1.849-3.793,2.902c-0.852,0.878-1.116,2.288-2.012,3.127
				c-2.379,2.249-5.951,2.44-7.579,5.579c-0.095,3.708,1.752,6.514,1.335,10.035c-0.192,1.606-1.393,3.031-1.565,4.688
				c-0.141,1.42,0.584,2.947,0.23,4.464c-0.197,0.811-1.1,1.238-1.792,2.23c-0.62,0.89-0.869,2.074-1.329,2.677
				c-0.755,0.963-1.989,1.634-2.689,2.457c-1.131,1.342-1.369,2.299-2.451,2.457c-4.89,0.704-6.096-8.598-8.255-12.499
				c-0.998-1.792-3.025-3.409-4.018-5.578c-1.144-2.502-1.493-5.641-3.127-8.48c-1.387-2.424-3.302-4.852-4.237-7.365
				c-0.796-2.125-1.481-4.785-2.231-7.14c-0.795-2.49-1.656-5.624-1.786-7.584c-0.186-2.896,0.558-4.683-1.787-5.804
				c-2.151,0.507-3.109,2.677-5.578,2.677c-2.38,0-8.773-4.125-6.91-7.811c-1.56-2.209-5.486-3.419-8.484-6.024
				c-1.713-1.492-3.264-5.049-6.243-5.353c-0.824-0.084-1.895,0.378-2.682,0.445c-1.889,0.164-5.236-0.169-7.366,0
				c-2.676,0.214-5.983,0.817-9.371,0.445c-2.182-0.236-4.892-0.659-7.14-0.89c-2.856-0.293-6.654-0.97-8.25-2.457
				c-0.991-0.914-1.391-3.838-3.133-4.238c-2.066-0.479-3.206,1.121-5.127,1.561c-4.091,0.936-7.505-0.839-10.269-2.677
				c-1.959-1.301-3.747-1.978-5.131-2.902c-3.394-2.271-4.002-9.1-9.152-9.151c-1.792-0.017-4.643,1.104-4.908,3.127
				c-0.175,1.421,1.696,4.058,2.457,5.134c2.503,3.527,7.1,4.852,8.48,9.591c0.924,0.36,2.807-0.812,3.792,0.225
				c0.863,2.034-0.012,5.81,2.007,6.695c9.275,1.532,11.923-3.551,16.071-7.14c2.405,1.572,1.61,2.947,2.451,4.683
				c0.855,1.78,2.196,3.178,3.792,3.798c1.12,0.428,2.559,0.028,4.243,0.665c1.054,0.4,5.453,4.564,5.584,6.03
				c0.112,1.312-2.891,5.78-3.804,6.914c-0.885,1.105-2.254,1.679-2.676,2.677c-0.315,0.772-0.215,2.412-0.447,2.902
				c-0.411,0.89-2.415,2.051-3.571,3.122c-1.218,1.138-2.638,2.022-3.793,2.901c-1.409,1.083-2.282,2.569-3.792,3.128
				c-2.969,1.094-5.793,0.625-8.254,2.232c-1.613,1.047-1.619,3.414-3.568,4.682c-2.039,1.325-5.528,1.335-8.486,2.682
				c-1.897,0.863-3.037,2.536-4.677,3.122c-0.671,0.237-1.51,0.035-2.236,0.226c-1.483,0.377-2.853,1.431-4.243,1.781
				c-1.1,0.281-2.265,0.141-3.348,0.451c-3.437,0.992-6.586,4.486-10.042,2.452c-1.628-3.759-1.892-8.492-3.792-11.828
				c-0.968-1.702-2.874-2.227-3.565-4.013c-0.098-1.436,1.633-1.042,1.779-2.231c-0.568-2.411-2.845-3.538-4.237-5.583
				c-0.683-0.998-0.996-2.418-1.786-3.567c-2.66-3.872-7.905-5.884-8.927-10.713c-0.276-1.313,0.046-2.344-0.219-3.348
				c-0.439-1.65-1.556-3.386-2.682-4.682c-0.853-0.992-2.593-1.668-3.568-3.128c-0.648-0.963-0.789-2.321-1.341-3.346
				c-2.219-4.143-5.432-7.8-8.926-10.712c-1.819,0.264-3.775,0.389-4.682,1.566c0.906,2.919,2.299,5.364,3.792,7.81
				c1.364,2.227,3.302,4.626,4.237,7.14c0.35,0.93,0.287,2.146,0.672,3.122c1.401,3.539,5.813,4.626,6.692,8.706
				c0.594,2.733-0.129,4.626,0.671,7.359c0.767,2.626,4.643,4.175,6.25,6.693c1.307,2.057,1.318,4.965,2.23,6.92
				c1.336,2.863,5.07,4.103,7.81,6.024c2.457,1.73,4.217,4.396,6.244,6.249c1.194,1.082,2.836,1.279,3.126,2.457
				c0.379,1.51-0.635,2.017-0.896,3.342c1.714,1.786,3.382,5.082,6.25,5.358c1.179,0.112,2.666-1.077,4.464-1.342
				c0.906-0.129,1.92,0.142,2.676,0c1.188-0.214,2.225-1.273,3.577-1.561c2.278-0.489,4.92-0.293,7.806-0.67
				c2.728-0.355,4.604-2.66,6.694-2.007c2.294,2.52,0.648,5.377,0,7.811c-0.226,0.857-0.226,1.741-0.439,2.458
				c-1.206,3.972-4.36,6.914-5.81,10.485c-0.445,1.094-0.367,2.437-0.885,3.568c-1.662,3.577-5.127,7.105-7.816,10.042
				c-1.516,1.65-2.852,3.144-4.462,4.462c-1.6,1.317-3.557,2.035-5.36,3.347c-3.571,2.615-7.291,6.362-9.815,9.822
				c-0.976,1.341-1.441,2.885-2.457,4.019c-1.453,1.622-3.701,2.423-4.907,4.017c-0.952,1.257-1.584,3.533-2.678,5.799
				c-1.227,2.552-3.792,4.277-3.345,7.809c0.167,1.352,1.379,2.193,1.785,3.574c0.692,2.377,0.162,4.378-0.226,6.913
				c1.263,3.06,2.17,6.465,4.463,8.48c0.276,4.515-0.372,8.897,0,12.718c0.236,2.435,1.184,4.229,0.225,6.471
				c-0.844,1.976-4.085,5.454-6.023,6.692c-2.106,1.36-5.33,1.714-7.59,3.355c-1.571,1.137-2.874,3.132-4.464,4.468
				c-2.63,2.192-6.236,4.243-6.468,6.468c-0.136,1.279,1.01,3.218,1.334,4.458c0.873,3.296,1.72,8.035,0.227,11.602
				c-1.618,3.86-9.798,3.06-10.711,7.139c-0.277,1.24,0.546,2.231,0.445,3.574c-0.08,1.137-1.573,5.24-2.233,6.468
				c-0.985,1.849-3.228,2.676-4.683,4.243c-1.825,1.978-2.75,4.84-4.688,6.913c-2.631,2.828-6.188,5.811-9.596,8.256
				c-2.965,2.142-8.284,4.361-12.938,4.688c-2.71,0.192-5.618-0.638-8.48-0.221c-1.048,0.146-2.186,1.11-3.572,1.337
				c-0.806,0.129-1.629-0.141-2.451,0c-1.403,0.236-2.717,1.353-4.018,1.341c-2.892-0.034-6.604-3.482-6.694-6.915
				c-0.034-1.324,1.133-2.581,1.115-3.798c-0.022-1.425-1.77-3.213-3.127-5.803c-1.302-2.491-1.814-5.314-3.122-7.354
				c-1.386-2.175-3.217-3.207-4.237-4.915c-2.058-3.431-2.208-7.494-2.901-11.607c-0.226-1.34-1.145-2.796-1.342-4.464
				c-0.243-2.05,0.248-4.327-0.22-6.023c-0.36-1.307-1.809-2.636-2.682-4.241c-1.573-2.893-2.677-6.674-4.014-8.922
				c-1.256-2.107-3.791-4.304-4.018-6.693c-0.151-1.625,0.204-4.65,0.445-6.25c0.242-1.567,1.403-2.807,1.787-4.458
				c0.254-1.099-0.051-2.36,0.22-3.572c1.138-5.106,6.762-6.964,6.028-13.168c-0.314-2.633-2.175-3.93-2.456-6.921
				c-0.129-1.397,0.699-2.625,0.671-4.016c-0.04-1.884-1.634-4.683-2.457-6.471c-2.26-4.924-3.646-9.426-6.914-13.163
				c-1.78-2.039-4.114-3.477-5.579-5.359c-1.2-1.531-2.659-4.401-2.682-5.576c-0.022-1.274,0.98-2.069,1.341-3.35
				c0.468-1.645,0.502-4.76,1.115-7.364c0.282-1.194,1.573-4.085,1.342-6.022c-0.226-1.866-3.004-5.444-5.359-6.024
				c-3.116-0.772-6.321,0.997-10.261,0.669C501.591,285.761,501.844,280.142,496.948,279.428z M620.346,359.314
				c1.032-1.64,2.327-6.25,0-7.367c-0.152,0-0.299,0-0.445,0C618.904,353.802,617.844,358.277,620.346,359.314z M617.219,312.674
				c0.755-1.544,2.523-3.178,2.23-5.127c-0.643-4.3-8.684-2.181-9.589,0.89c-0.616,2.067,0.365,3.707-0.453,5.803
				c0.879,1.65,3.083,1.978,5.805,1.782C616.717,315.362,616.531,314.093,617.219,312.674z M603.611,335.664
				c0.885-1.639-1.409-2.71-1.786-4.467c-0.44-2.058,0.5-4.476-1.343-5.581c-0.218,0-0.444,0-0.663,0
				C598.2,329.274,600.488,335.309,603.611,335.664z M755.792,114.076c-0.839-1.686-3.251,0.496-2.226,2.012
				C755.077,116.183,755.62,115.31,755.792,114.076z M703.804,123.227c3.617-0.699,0.04-6.48-2.682-5.804
				C697.568,118.313,701.337,123.7,703.804,123.227z M687.291,152.01c1.114-7.737-4.915-8.317-6.025-13.833
				c0.514,0.068,0.247-0.643,0.671-0.67c1.465-0.704,3.681,1.127,4.457-0.665c0.017-2.644-3.336-4.615-6.695-3.347
				c-0.968-0.666-1.098-2.17-1.335-3.573c-2.529-1.504-8.791-4.796-8.705-7.81c0.072-2.479,3.273-3.871,6.919-3.792
				c1.539-1.166,0.548-4.75-0.89-5.579c-5.771-1.262-8.846-0.411-12.499,2.231c-1.752,1.268-3.707,2.142-4.688,2.902
				c-0.901,0.699-2.107,2.61-2.005,3.567c0.141,1.381,2.119,2.192,2.902,4.018c0.399,0.941,0.314,2.119,0.67,2.902
				c0.976,2.152,3.471,3.544,5.354,5.353c1.329,1.279,5.059,4.051,5.133,5.579c0.068,1.273-1.145,1.555-1.556,2.902
				c-0.422,1.319-0.907,4.435-0.669,5.579c0.488,2.452,3.025,2.536,5.346,3.573c2.306,1.026,4.527,2.84,6.919,2.896
				C683.148,154.309,685.864,153.492,687.291,152.01z M634.849,135.944c6.048-1.092,3.287-6.204,0.221-8.029
				c-2.322-1.386-5.099-2.592-7.809-4.244c-1.573-0.958-7.547-2.766-7.585-4.682c-0.046-2.096,4.444-2.783,2.676-6.474
				c-3.055-0.744-10.317,0.428-9.815,3.792c0.287,1.944,2.592,0.868,3.121,2.902c-2.186,0.778-4.847,2.817-7.14,2.457
				c-2.733-0.428-3.437-3.787-4.907-5.805c-2.124,0.069-3.522-2.057-6.025-1.786c-2.624,0.287-4.017,4.097-5.357,6.03
				c-0.711,1.014-1.843,1.538-2.232,2.451c-0.23,0.553,0.022,1.431-0.219,2.232c-0.767,2.479-2.914,3.386-2.684,5.578
				c0.209,1.932,2.311,2.801,2.459,4.463c-0.148,1.714-2.898,0.823-2.678,2.902c3.993,3.296,4.214-1.556,6.249-2.232
				c1.635-0.547,4.841,0.451,6.914,0c1.674-0.366,2.991-1.961,4.908-2.676c1.172-0.44,2.621-0.829,4.243-0.897
				c7.1-0.293,11.682,4.328,17.852,4.463C629.079,136.435,632.733,136.328,634.849,135.944z M620.566,162.277
				c0.124-2.395-0.912-4.199-1.116-7.585c-4.119-2.485-7.196,2.305-11.377,1.781c-2.569-0.322-4.412-3.314-7.14-2.897
				c-1.505,0.226-2.248,2.169-3.798,2.451c-3.189,0.586-4.643-2.552-8.03-1.335c-4.777-3.64-6.913-9.568-8.035-16.291
				c-2.602-3.415-6.574-0.638-8.479,1.561c-1.173-0.011-2.637-0.647-2.896,0.67c-0.879,4.125,5.832,4.564,5.798,7.365
				c-0.021,1.82-2.62,1.652-3.792,2.897c-1.245,1.323-0.417,2.502-2.006,3.347c-4.401,0.529-5.86-1.876-5.805-5.799
				c-1.899-2.885-4.299-4.987-6.023-7.364c-0.637-0.879-1.589-2.249-1.786-3.573c-0.158-1.042,0.496-2.367,0.226-3.567
				c-0.484-2.13-4.452-3.736-6.92-4.908c-2.637-1.257-5.939-2.446-7.81-4.018c-1.325-1.116-1.95-3.055-3.122-3.792
				c-0.998-0.625-2.237-0.497-3.128-1.116c-1.223-0.856-1.02-2.283-2.676-2.682c-0.84-0.31-2.136,0.833-2.677,1.566
				c-1.088,4.869,2.873,5.202,4.683,7.359c1.245,1.482,1.864,3.713,3.127,4.688c1.347,1.042,3.178,0.852,4.908,1.561
				c1.195,0.491,1.972,1.979,3.122,2.677c2.13,1.296,5.55,1.521,5.804,4.018c-1.324,0.902-4.327-1.313-5.354,0.896
				c-0.264,1.449,1.15,2.193,1.117,3.567c-0.058,2.198-2.498,4.605-4.689,4.243c-0.22-1.307,1.167-2.377,1.116-3.797
				c-0.096-2.84-5.805-7.173-8.7-8.476c-1.358-0.613-3.01-0.647-4.244-1.341c-2.191-1.234-6.029-4.266-7.364-6.023
				c-1.596-2.114-2.958-6.024-6.469-5.805c-1.432,0.09-2.615,1.403-3.792,2.012c-1.071,0.546-2.254,1.054-3.348,1.78
				c-1.302,0.863-2.361,1.735-3.573,1.786c-2.8,0.119-5.179-2.079-7.585-1.56c-0.811,0.175-1.486,0.901-2.456,1.787
				c-0.034,1.301,0.39,2.135,0.226,3.566c-0.728,1.257-2.885,1.178-4.463,2.012c-2.311,1.217-4.366,3.719-6.249,5.578
				c-1.212,1.194-2.305,2.181-2.457,3.122c-0.118,0.738,0.625,2.136,0.451,3.127c-0.198,1.077-2.221,3.308-3.573,4.238
				c-0.789,0.541-1.837,0.614-2.676,1.115c-1.759,1.042-2.547,2.401-4.019,2.677c-3.899,0.727-10.988-0.783-10.932,3.348
				c0.034,2.76,3.759,2.772,6.024,2.676c3.155-0.124,5.838,0.671,7.584,0.226c1.206-0.305,2.524-1.657,3.792-2.231
				c0.801-0.36,1.629-0.366,2.231-0.67c1.336-0.67,2.091-1.758,3.128-2.232c2.04-0.93,5.838-1.657,8.029-1.786
				c3.009-0.175,6.153,0.31,10.042,0c1.386-0.107,2.756-0.998,4.243-1.116c2.429-0.191,5.623,0.958,7.584,0.896
				c1.358-0.045,2.874-1.364,4.463-1.341c1.798,0.028,3.691,1.307,4.018,2.457c0.187,0.653-0.378,1.696-0.225,2.677
				c0.259,1.622,1.651,2.292,1.566,3.346c-0.119,1.398-3.601,3.263-3.128,4.909c0.311,1.058,2.807,2.164,4.019,2.901
				c1.268,0.772,3.408,1.843,4.907,2.007c1.262,0.141,2.379-0.35,3.573-0.219c1.922,0.208,5.032,1.375,6.249,2.23
				c2.096,1.477,1.803,3.843,4.237,4.683c1.036,0.361,2.907,0.158,4.237,0.452c3.252,0.704,5.663,3.397,8.036,3.121
				c3.735-0.434,2.034-3.955,2.457-6.468c0.952-5.697,12.081-5.439,14.278-1.567c1.629,0.435,3.055,0.067,4.908,0.671
				c1.07,0.349,1.87,1.52,2.9,1.786c0.778,0.197,1.91-0.113,2.902,0c4.277,0.484,8.154,3.669,11.828,3.122
				c2.332-0.344,4.022-2.536,6.244-2.677c4.27-0.264,7.003,3.178,11.607,1.561c3.387-1.189,2.632-4.699,3.792-8.255
				C618.921,165.827,620.475,164.142,620.566,162.277z M861.117,86.183c0.885-2.84-0.49-5.708-2.232-7.584
				c-2.575,0.445-0.716,3.122-0.891,4.688c-0.253,2.214-2.604,3.753-2.457,6.024c-0.856,1.002-2.32,1.396-2.45,3.121
				c1.419,0.981,2.039-0.771,3.122-1.786C857.916,89.045,860.525,88.099,861.117,86.183z M802.653,8.753
				c-2.455,0-3.382,0.97-4.907,1.786c-0.84,0.445-2.548,0.693-2.006,2.006C797.881,12.286,802.141,11.317,802.653,8.753z
				 M708.489,36.201c5.245,1.222,7.708-4.701,4.237-8.036c-0.812-0.777-3.551-1.082-4.679-2.896
				c-1.367-2.182-1.178-5.094-4.468-4.462c-0.034,0.258,0.04,0.63-0.227,0.665c-0.308,4.879,6.796,6.107,6.695,10.041
				C709.999,33.575,707.817,33.794,708.489,36.201z"/>
			<path fill="#F5F5F5" d="M635.07,27.721c-0.648-2.413,3.928-2.024,3.127,0.225C637.482,28.616,635.527,28.559,635.07,27.721z"/>
			<path fill="#F5F5F5" d="M607.627,161.162c0.104-1.843,4.307-2.519,5.128-0.89C612.479,162.063,608.492,163.297,607.627,161.162z"
				/>
			<path fill="#F5F5F5" d="M531.09,149.114c2.327-1.883,7.505-0.608,10.711-0.671c-0.603,1.708-0.693,3.923-2.011,4.909
				C536.133,152.691,532.724,151.791,531.09,149.114z"/>
			<path fill="#F5F5F5" d="M514.799,137.287c3.065-3.201,6.282-1.511,5.134,4.682c-0.733,1.848-3.923,4.316-5.359,1.566
				C515.064,141.372,514.856,139.777,514.799,137.287z"/>
			<path fill="#F5F5F5" d="M519.261,130.147c0.254,1.887-0.534,2.732-1.561,3.347C514.759,132.975,516.997,127.695,519.261,130.147z
				"/>
			<path fill="#F5F5F5" d="M475.974,84.847c0.259-1.274-0.738-2.857-2.012-3.572c-0.732-0.412-1.854-0.22-2.677-0.67
				c-2.175-1.195-2.964-3.686-4.236-4.237c0.162-2.446-0.672-4.216,0-5.805c0.404-0.963,3.335-3.685,4.907-4.237
				c1.95-0.688,3.989-0.073,5.134-1.561c0.512-0.073,0.856,0.033,1.115,0.22c-0.011,1.408-1.194,1.64-1.341,2.902
				c0.275,2.029,3.849,0.76,4.237,2.676c-0.338,2.085-2.215,2.496-2.23,4.018c-0.007,1.324,2.704,3.838,4.018,5.58
				c0.979,1.29,2.692,2.248,3.571,3.572c0.767,1.155,0.936,2.53,1.561,3.122c1.173,1.11,3.821,1.296,4.019,2.902
				c0.259,2.13-2.648,2.97-2.231,5.353c-3.065,2.406-8.177,1.161-13.169,1.787c-2.26,0.288-4.75,2.535-7.14,0.67
				c-0.553-1.499,1.983-1.702,2.231-3.122c-0.175-1.318-1.843-1.132-2.231-2.232c0.648-1.735,2.671-2.09,2.457-4.688
				C473.202,86.166,475.597,86.679,475.974,84.847z"/>
			<path fill="#F5F5F5" d="M459.239,79.488c2.98-1.82,8.187-0.428,8.475,1.787c0.22,1.673-1.583,1.917-2.231,3.792
				c-0.58,1.707,0.113,3.735-0.665,4.914c-0.682,1.019-2.536,0.958-3.798,1.335c-2.806,0.84-8.227,4.137-10.487,0.445
				c0.327-1.977,2.243-2.372,2.902-4.012c0.039-1.291-1.335-1.971-1.115-3.347c0.271-1.685,1.539-1.104,3.348-1.787
				C456.978,82.114,457.542,80.525,459.239,79.488z"/>
			<path fill="#F5F5F5" d="M306.831,31.067c0.468,1.983-5.872,4.575-6.476,2.012C299.876,31.028,305.212,28.464,306.831,31.067z"/>
			<path fill="#F5F5F5" d="M299.465,534.031c-1.116,0-2.231,0-3.348,0C296.721,533.666,298.862,533.666,299.465,534.031z"/>
			<path fill="#F5F5F5" d="M289.423,15.227c0.288-0.31,1.054-0.31,1.342,0c-0.221,0.524-0.395,1.094-1.342,0.89
				C289.423,15.819,289.423,15.52,289.423,15.227z"/>
			<path fill="#F5F5F5" d="M269.566,50.705c0.045,1.229-4.435,3.263-4.914,0.892c-0.079-0.418,0.023-1.252,0.896-1.781
				C266.738,49.083,269.521,49.499,269.566,50.705z"/>
			<path fill="#F5F5F5" d="M176.736,258.004c-0.118,0.332-0.332,0.563-0.445,0.896C173.919,258.815,176.06,255.783,176.736,258.004z
				"/>
			<path fill="#F5F5F5" d="M86.138,102.028c1.566-0.913,3.065,1.375,2.012,2.457C86.425,104.817,85.985,102.845,86.138,102.028z"/>
			<path fill="#F5F5F5" d="M329.364,110.284c-1.042-0.26-2.462-0.208-3.792-0.445c-1.139-0.204-2.491-0.541-3.566-0.67
				c-2.756-0.327-5.737,0.474-7.366-1.116c2.654-3.528,6.183-7.004,9.598-10.042c1.014-0.907,3.194-1.527,2.677-3.347
				c-1.899-1.668-4.231,0.102-6.024,1.116c-1.882,1.059-4.124,2.586-6.25,2.902c-3.69,0.547-8.587-1.082-11.602,0.891
				c-0.417,1.685,3.432,1.032,2.896,3.572c-1.477,0.243-2.873,0.36-4.013-0.67c-1.036-0.935-0.444-2.338-1.115-2.902
				c-1.144-0.946-5.443-1.206-7.365-0.891c-2.344,0.383-4.417,1.786-4.688,3.792c2.817,1.319,7.461-1.358,8.48,2.011
				c-1.544,2.779-5.18,4.306-4.688,8.031c0.192,1.436,1.898,3.358,3.128,3.573c1.233,0.214,1.928-1.009,3.122-0.896
				c1.262,0.119,0.975,1.561,2.456,1.341c2.147-0.918,3.336-3.934,5.799-3.793c2.952,3.584-2.666,5.331-5.799,6.469
				c-3.573,1.296-8.216,1.983-10.938,3.127c-1.425,0.598-6.824,5.815-7.584,1.78c-0.547-2.907,2.67-2.067,3.347-4.463
				c-3.455-0.67-6.672,1.488-9.816,2.683c-4.485,1.696-12.086,2.772-13.168,7.811c-0.215,1.008,0.439,2.896-0.22,3.566
				c-0.535,0.542-3.736,0.636-5.134,1.116c-2.152,0.738-4.03,2.315-5.359,2.677c-1.003,0.276-2.485,0.197-3.122,0.451
				c-1.774,0.688-2.429,3.087-4.463,4.682c-0.833,0.653-2.682,1.127-3.347,1.786c-1.154,1.15-1.307,4.03-3.346,4.463
				c-1.296,0.113-2.35-0.975-3.573-0.225c-0.146,2.845,1.002,6.717-0.22,9.596c-2.643,2.152-5.545,3.679-8.925,5.578
				c-1.872,1.054-3.545,1.325-5.805,2.458c-1.601,0.8-3.065,2.704-4.908,3.792c-4.26,2.507-9.405,5.477-9.372,11.828
				c0.006,1.375,0.716,2.856,0.891,4.462c0.106,0.947-0.113,1.871,0,2.902c0.264,2.333,1.955,5.303,0,6.914
				c-3.004-1.235-6.824-1.651-8.927-3.792c-0.574-2.205,1.161-4.018,0.897-6.024c-0.214-1.611-2.48-4.479-3.798-4.688
				c-1.358-0.215-2.609,1.228-4.012,1.116c-1.667-0.129-3.218-2.429-5.359-2.677c-3.138-0.366-5.449,0.716-8.925,0.226
				c-3.365,1.798-4.351,5-8.475,4.683c-1.454-0.106-2.783-1.216-4.462-1.561c-1.82-0.377-4.582-1.019-6.475-0.89
				c-3.798,0.253-6.553,2.986-9.815,4.683c-2.88,1.499-6.954,3.364-7.81,6.475c-0.468,1.674-0.074,4.029-0.67,5.578
				c-0.395,1.02-1.257,1.928-1.787,2.896c-2.502,4.569-4.575,10.611-2.676,17.187c0.281,0.975,2.766,6.474,3.791,7.585
				c1.151,1.234,4.537,3.088,6.47,3.122c1.633,0.034,3.551-0.828,5.134-1.115c1.836-0.327,4.136-0.355,5.804-0.891
				c4.823-1.543,3.871-8.069,8.7-10.267c2.107-0.953,4.547-1.144,8.255-1.336c1.178,0.993,1.729,2.728,1.566,4.238
				c-0.124,1.139-1.205,2.17-1.786,3.793c-0.507,1.425-0.614,3.093-1.116,4.242c-0.665,1.505-2.147,2.604-2.677,4.018
				c-0.349,0.918-0.158,2.062-0.445,2.896c-0.512,1.471-2.479,2.508-1.566,4.018c4.778,1.898,10.559-0.541,14.729,0.226
				c1.758,0.321,5.387,2.423,5.354,5.133c-0.023,2.029-1.567,3.359-1.787,5.58c-0.27,2.794-1.437,6.215-1.561,8.475
				c-0.197,3.702,5.432,10.092,9.371,10.041c4.243-0.056,6.718-4.22,11.828-2.005c1.696,0.732,3.488,3.482,5.358,3.347
				c1.544-0.112,3.877-2.817,4.909-4.688c1.256-2.282,1.347-4.204,3.567-5.354c2.395-1.239,4.299-0.642,7.364-1.786
				c1.369-0.508,2.559-1.381,3.792-2.232c1.082-0.744,2.22-2.693,3.573-1.341c1.781,1.781-2.181,2.783-0.67,4.688
				c3.093,1.641,4.677-3.049,6.92-3.122c0.715-0.022,3.189,1.393,4.462,2.232c1.742,1.144,2.333,2.749,4.238,3.122
				c1.223,0.242,3.189-0.469,4.908-0.226c2.277,0.327,3.634,2.282,5.359,2.231c2.102-0.056,3.11-2.344,4.909-2.677
				c3.938-0.721,5.403,0.44,7.139,2.902c1.944,0.338,2.011-2.248,3.792-1.335c-0.975,1.944,0.333,2.839,1.116,4.463
				c0.507,1.042,0.422,1.779,0.896,2.231c1.065,1.014,3.122,1.014,4.682,2.007c1.646,1.036,2.575,2.963,4.463,5.133
				c1.945,2.22,5.212,4.519,7.81,4.683c2.451,0.158,4.445-0.694,6.475-0.445c4.615,0.569,7.483,2.874,10.712,5.359
				c1.804,1.385,3.432,2.349,4.012,4.012c0.406,1.16,0.209,2.716,0.671,4.019c0.986,2.777,5.038,4.118,3.573,8.926
				c0.67,1.407,2.175,1.915,3.791,2.9c1.297,0.795,2.39,2.451,3.793,2.678c0.907,0.146,1.894-0.272,2.677-0.227
				c2.536,0.181,4.277,1.162,6.475,2.012c1.364,0.525,3.11,0.732,4.019,1.346c1.132,0.761,1.278,3.33,2.676,4.008
				c0.913,0.443,2.941-0.17,4.462,0c2.396,0.281,5.647,1.746,7.811,1.791c1.313,0.027,2.401-0.542,3.567-0.451
				c5.466,0.422,8.564,6.959,13.84,8.926c1.634,0.614,4.226,0.186,5.353,0.671c1.979,0.855,3.646,6.908,3.792,9.589
				c0.451,8.11-5.775,10.711-9.37,16.071c-0.75,1.122-1.167,2.896-2.231,4.463c-2.142,3.149-4.524,3.804-4.237,9.595
				c0.078,1.59,0.89,3.14,0.89,4.909c0,2.158-0.187,4.98-0.671,6.919c-0.365,1.478-1.589,2.676-1.785,4.019
				c-0.198,1.358,0.4,2.412,0.226,3.572c-0.192,1.285-1.478,3.099-2.458,4.902c-2.062,3.81-2.513,8.289-6.694,9.815
				c-2.456,0.902-5.786,0.399-8.475,1.341c-1.087,0.385-2.462,1.387-3.798,2.007c-3.882,1.809-9.417,4.249-10.486,8.256
				c-0.953,3.572,1.329,6.417,0.67,10.491c-0.693,1.213-1.629,2.425-2.677,3.792c-0.963,1.269-1.442,2.756-2.456,4.019
				c-1.342,1.68-3.426,2.423-4.237,4.688c-0.277,0.767-0.102,1.679-0.445,2.896c-0.13,0.451-0.953,1.149-1.342,2.006
				c-0.36,0.793-0.343,1.809-0.67,2.461c-1.02,2.058-4.053,6.74-6.25,7.364c-4.632,1.297-9.517-1.966-12.718-1.346
				c0.462,2.238,2.085,2.006,3.128,3.573c0.608,0.925,0.94,2.147,1.78,3.123c1.003,1.16,1.888,1.588,2.012,2.9
				c0.254,2.75-1.888,5.518-3.348,6.475c-1.335,0.874-4.107,1.386-6.475,1.781c-1.65,0.276-5.911,0.293-6.693,1.347
				c-1.149,1.55,0.608,5.376-0.22,6.914c-1.668,3.263-6.154-0.089-8.48,0.89c-0.198,1.685,0.422,3.45,1.786,4.237
				c1.403,0.824,3.533-0.248,4.462,1.343c-0.456,2.22-2.845,2.507-3.347,4.688c0.062,2.13,0.716,2.687,0.445,4.011
				c-0.581,2.868-5.038,2.75-4.908,5.805c0.192,4.57,8.768,2.698,8.926,7.146c0.09,2.692-2.457,2.722-3.347,5.348
				c-0.479,1.408,0.275,1.734,0,2.9c-0.372,1.584-2.232,2.041-2.232,3.792c-0.006,2.136,3.122,4.487,4.682,6.25
				c1.527,1.731,3.488,4.197,5.579,5.359c3.134,1.729,7.799,1.341,9.151,4.462c-0.428,1.877-2.237,2.379-4.018,2.896
				c-0.146,0-0.299,0-0.445,0c-0.604-0.365-2.744-0.365-3.348,0c-1.042,0-2.085,0-3.121,0c-2.986-1.375-6.61-2.265-10.267-3.566
				c-1.319-0.468-2.807-1.584-4.239-2.225c-1.075-0.493-2.287-0.683-3.126-1.123c-1.922-1.008-4.085-4.277-6.024-5.574
				c-1.177-0.793-3.026-1.212-3.792-2.016c-0.732-0.761-1.132-2.412-1.786-3.341c-0.721-1.025-2.045-1.774-2.902-2.902
				c-1.853-2.463-4.22-5.776-4.237-7.59c-0.017-1.786,1.702-2.998,1.116-4.677c-0.546-1.584-3.973-1.24-4.463-3.133
				c-0.299-1.139,0.986-3.06,0.89-4.678c-0.05-0.94-1.809-2.22-1.114-3.578c0.8-1.562,2.31,0.129,3.572-0.666
				c-0.946-3.222,0.073-8.406-3.126-9.376c-1.646,1.387,1.678,4.504-1.117,5.36c-2.699-1.2-2.073-4.755-2.677-7.364
				c-0.394-1.726-1.25-3.275-1.335-5.134c-0.045-0.976,0.383-2.107,0.22-3.117c-0.474-3.009-3.82-5.472-4.018-8.486
				c-0.09-1.453,0.891-2.682,1.115-4.237c0.158-1.053-0.146-2.236,0-3.347c0.198-1.419,0.981-2.722,1.117-4.017
				c0.264-2.452-0.006-6.657-0.445-8.707c-0.552-2.575-2.598-4.767-2.902-7.579c-0.108-1.02,0.338-2.716,0.225-4.02
				c-0.106-1.211-0.772-2.411-0.89-3.798c-0.113-1.272,0.316-2.483,0.445-4.017c0.237-2.8-0.546-5.922-0.445-8.705
				c0.028-0.817,0.457-1.426,0.445-2.227c-0.028-2.303-0.795-4.625-0.896-6.918c-0.175-4.238,0.468-7.241-0.219-11.157
				c-0.52-2.965-1.162-7.506-2.232-9.366c-1.194-2.079-5.888-5.607-8.255-6.925c-1.562-0.867-3.432-1.166-5.133-2.007
				c-3.634-1.78-10.679-5.55-12.273-9.145c-0.462-1.044-0.4-2.419-0.896-3.573c-0.97-2.288-3.015-4.266-4.463-6.474
				c-2.755-4.21-4.981-9.488-7.81-13.834c-1.431-2.208-2.671-4.711-4.237-6.468c-0.919-1.037-3.86-2.007-4.238-3.574
				c-0.501-2.062-2.028-4.896-1.786-6.469c0.321-2.136,4.469-3.86,4.463-5.798c-0.006-1.656-2.215-2.619-2.677-4.017
				c-1.126-3.414,0.66-5.417,2.007-8.262c0.445-0.931,0.878-2.433,1.341-3.121c0.817-1.229,2.479-1.573,3.567-2.902
				c0.608-0.744,0.992-2.294,1.786-3.348c1.696-2.253,4.435-3.099,5.134-5.133c0.569-1.657,0.901-9.945,0.22-12.718
				c-0.389-1.601-1.882-2.94-2.451-4.463c-1.008-2.693-1.245-5.635-4.018-5.579c-1.712,0.035-2.918,1.928-4.018,3.123
				c-0.265,1.588-0.124,3.308-1.786,3.793c-2.536,0.749-3.511-2.672-6.469-3.568c-1.177-0.36-3.054-0.338-3.792-0.669
				c-2.158-0.97-2.856-4.132-5.133-5.36c-1.905-1.02-3.534-0.665-4.688-2.232c-0.479-1.075-0.102-3.02-0.22-4.463
				c-2.446-1.431-4.52-6.767-7.365-8.029c-1.888-0.84-4.778-0.761-7.14-1.562c-1.11-0.377-1.967-0.861-3.127-1.114
				c-1.431-0.322-2.903-0.339-4.012-0.897c-4.418-2.192-6.801-9.297-12.273-9.145c-2.333,0.062-4.581,2.243-6.694,2.231
				c-2.102-0.011-5.624-1.678-8.26-2.901c-2.74-1.274-5.77-1.967-8.031-3.123c-1.825-0.936-3.092-2.643-4.688-3.353
				c-1.222-0.541-3.009-0.636-4.012-1.11c-1.425-0.676-2.913-2.119-4.688-3.353c-1.685-1.166-3.505-2.947-3.573-4.457
				c-0.073-1.747,1.606-3.234,1.787-4.914c0.575-5.313-3.341-9.134-5.805-12.272c-1.825-2.333-3.966-4.311-5.798-6.47
				c0.102-1.431,0.102-1.69,0-3.122c-1.386-1.346-2.552-3.341-4.018-5.358c-1.325-1.82-3.905-3.759-4.237-5.799
				c-0.412-2.507,0.952-4.71,0-7.145c-1.589-4.041-7.196-2.215-6.475,3.126c0.204,1.471,2.277,3.449,2.902,4.909
				c0.642,1.487,0.519,3.342,1.116,5.133c0.575,1.719,2.305,3.201,2.902,5.133c0.946,3.054,0.918,6.346,1.786,8.255
				c0.767,1.696,3.59,3.302,2.006,5.354c-2.113,0.439-2.925-1.673-4.237-2.902c-0.733-0.682-3.386-1.978-3.792-3.566
				c-0.339-1.314,0.834-3.083,0.445-4.688c-0.767-3.15-7.123-3.229-7.146-6.47c-0.011-2.034,2.66-2.277,2.683-4.243
				c0.017-2.152-2.936-3.972-3.573-5.798c-0.58-1.674-0.676-4.339-0.89-6.695c-0.209-2.209,0.062-4.767-0.451-6.475
				c-0.457-1.532-2.762-3.641-4.237-4.463c-1.956-1.086-3.505-0.636-4.463-2.23c-0.835-1.393-1.381-4.3-1.562-5.799
				c-0.321-2.682-0.073-5.618-0.226-8.481c-0.146-2.868-0.439-5.618,0-8.701c1.104-2.159,3.117-3.223,4.244-5.358
				c0.784-1.487,0.896-3.324,1.781-4.908c1.634-2.914,5.195-5.606,7.59-8.48c2.581-3.094,4.959-6.057,6.469-9.597
				c0.541-1.256,1.995-4.04,1.786-5.578c-0.293-2.147-4.338-3.917-4.018-6.47c0.204-1.583,2.457-1.56,3.127-3.122
				c0.344-0.805,0.655-3.053,0.67-4.018c0.034-2.152-1.104-4.395-0.67-6.694c0.366-1.961,3.286-2.755,1.787-4.908
				c-1.489-2.13-4.16,1.149-5.805-0.226c-1.51-1.268,0.304-2.801,0.445-5.133c0.057-0.93-0.541-1.989-0.445-2.676
				c0.135-0.997,2.08-2.677,1.562-3.348c-1.206-1.526-2.559-5.403-5.134-6.694c-3.273-1.645-6.818-0.535-11.376-1.341
				c-2.796-0.491-4.12-3.105-6.695-2.896c-1.589,0.124-2.502,1.943-4.688,2.896c-2.165,0.946-4.993,0.625-7.14,1.115
				c-2.13,0.491-3.155,1.961-5.359,1.786c-1.836-0.141-1.848-1.797-4.011-2.006c-0.846-0.084-2.446,0.524-3.792,0.67
				c-3.449,0.361-9.676,0.536-13.169-0.225c-3.194-0.693-5.167-1.708-8.701-3.347c-2.654-1.229-7.579-2.745-7.365-4.688
				c0.135-1.251,4.667-2.575,6.469-3.122c2.908-0.884,4.7-2.315,6.92-2.458c0.856-0.05,1.983,0.531,3.122,0.453
				c1.144-0.085,2.553-1.139,4.018-1.342c3.115-0.434,7.511,0.158,7.139-2.901c-2.366-1.872-12.019,1.385-12.272-2.677
				c-0.152-2.458,3.663-3.201,6.475-3.792c2.559-0.542,6.441-1.455,8.7-1.341c2.548,0.129,5.9,2.98,7.365-0.22
				c0.709-2.276-0.868-4.187-1.342-6.029c1.895-2.615,5.381-2.288,8.036-2.676c3.031-0.446,5.506-0.986,8.48-2.232
				c2.61-1.094,5.382-1.826,8.476-2.232c3.032-0.394,5.973-1.538,8.706-1.786c2.248-0.204,4.311-0.023,6.468-0.445
				c1.91-0.372,3.928-1.431,6.03-1.336c1.403,0.062,2.604,1.088,4.012,1.336c1.324,0.231,2.84-0.067,4.243,0.225
				c1.076,0.226,2.045,0.952,3.122,1.116c1.69,0.254,3.504-0.237,5.133,0c1.499,0.213,2.773,1.15,4.237,1.336
				c3.438,0.445,7.371-0.181,10.713,0.45c1.267,0.237,2.411,0.862,3.792,1.116c1.308,0.237,2.744-0.034,4.018,0.22
				c1.774,0.354,3.257,2.034,5.133,2.232c3.454,0.36,7.331-1.5,10.932-1.787c2.608-0.202,5.297,0.107,8.035-0.445
				c2.491-0.502,4.902-1.465,7.14-1.561c1.216-0.051,2.236,0.372,3.346,0.225c1.155-0.157,2.542-1.543,3.792-1.341
				c1.662,0.265,1.369,2.367,3.127,2.902c1.945-1.009,3.883,0.068,6.023,0c2.085-0.073,3.95-1.031,6.25-0.67
				c4.062,0.637,9.738,4.615,12.938,2.457c0.806-0.546,0.614-1.488,1.342-2.901c0.986-1.922,2.93-4.182,2.456-6.92
				c-4.474,0.073-8.745,2.26-13.839,2.456c-5.145-3.223,1.375-5.222,5.133-6.693c3.099-1.217,5.551-3.917,9.377-4.463
				c3.121-0.451,6.553,0.688,10.26,1.116c2.164,0.248,4.328-0.153,5.578,0.219c2.192,0.66,3.319,2.829,5.134,3.347
				c0.783,0.226,2.067,0.203,3.122,0.451c2.005,0.462,3.803,1.522,5.804,0c1.572,0.282,1.757,1.956,3.347,2.232
				c1.481-0.8,2.625-2.834,4.908-3.347c0.992-0.226,2.034,0.168,3.122,0c1.82-0.293,4.243-2.756,5.358-0.451
				c-0.457,1.611-2.891,1.854-4.243,3.126c-1.2,1.133-3.049,3.731-2.897,4.909c0.266,2.129,3.455,1.306,3.567,4.018
				c-0.473,1.561-2.288,0.862-3.792,1.561c-1.375,0.637-1.888,1.955-3.348,2.232c-4.057,0.765-7.421-1.021-10.931-0.891
				c-0.164,1.521,1.735,2.407,2.676,2.896c3.184,1.674,5.776,1.443,10.262,1.342c2.299-0.051,4.942,0.687,6.92-0.671
				c1.25-0.856,1.183-2.744,2.231-3.793c1.262-1.256,4.17-2.535,6.024-2.231c1.014,0.169,2.439,1.375,2.457,2.231
				c0.034,2.028-2.868,1.381-2.901,3.573c1.888,1.133,6.875-1.239,7.14-3.126c0.191-1.375-1.623-2.17-1.562-3.568
				c0.107-2.338,3.285-2.298,2.902-4.687c-1.533-1.207-3.133,0.258-4.689,0c-2.192-0.368-4.165-2.993-5.133-4.689
				c0.969-1.2,2.999-0.4,4.463-0.22c1.64-2.271,4.694-3.154,8.926-3.572c1.504-0.146,3.51-0.744,4.242,0.67
				c0.361,2.114-3.127,3.382-2.456,5.805c3.003,0.749,3.989-3.303,6.474-4.914c1.094-0.71,2.66-1.183,4.238-1.781
				c1.375-0.524,2.892-1.82,4.018-1.786c1.234,0.034,1.454,1.048,2.677,1.561c1.099,0.462,2.536-0.316,2.902,1.115
				c-2.586,4.481-12.228,1.905-14.73,6.47c0.558,3.06-1.51,5.979,0.225,8.035c1.24,1.465,4.035,0.468,4.684,2.006
				c0.873,2.056-2.706,2.056-1.781,4.463c2.361,1.414,5.173-1.348,7.359-2.452c2.344-1.188,5.308-2.592,5.578-5.358
				c-1.177-2.265-5.572-0.512-6.243-2.896c-0.366-1.296,1.347-4.199,1.78-4.688c2.328-2.609,10.453-6.323,16.29-5.803
				c1.111,0.101,2.232,0.777,3.348,0.896c3.837,0.394,8.368-1.658,11.383,0c2.423-1.415,5.33,0.191,8.7-0.226
				c2.598,1.533,1.882,4.795,5.805,6.25c1.065,0.395,2.395,0.113,3.792,0.445c1.037,0.248,2.158,1.465,3.347,2.012
				c1.69,0.766,2.987,0.591,3.348,1.78c0.355,1.167-1.229,1.922-1.116,3.127c0.964,0.794,0.158,1.99,0.671,3.122
				c0.963,2.068,3.392,1.916,5.798,2.902c1.69,0.692,5.297,2.817,5.134,4.463c-0.107,1.104-3.387,3.042-4.462,3.572
				c-0.762,0.372-4.525,2.191-5.8,2.006c-2.107-0.31-2.93-4.576-5.804-4.463c-1.251,0.051-2.428,0.806-2.457,2.457
				c-0.045,2.931,3.28,3.042,3.348,5.579c0.09,3.031-1.656,3.24-4.237,5.127c-1.849-0.749-3.403-1.803-5.804-2.005
				c-1.427,1.695,2.344,2.304,1.115,4.463c-3.584,0.759-6.317-1.015-9.591-2.007c-1.025-0.31-2.502-0.186-3.348-0.67
				c-1.268-0.732-1.64-2.902-2.682-4.018c-1.206-1.296-3.612-3.133-5.579-3.122c-2.755,0.006-6.745,3.432-8.926,0.22
				c1.512-5.11,8.667-1.318,13.389-3.121c1.758-0.671,2.362-2.53,3.798-3.348c2.886-1.645,7.574-1.876,7.14-5.132
				c-0.22-1.64-2.514-1.618-3.792-2.457c-1.747-1.139-3.082-5.156-5.578-5.353c-1.285-0.102-2.21,0.986-3.573,1.115
				c-2.885,0.27-6.096-1.161-8.7,0c-1.211,0.693-0.395,1.803-1.341,3.122c-0.777,1.081-2.615,1.386-3.347,2.456
				c-0.857,1.256-0.683,2.818-1.787,3.793c-1.832,1.623-5.708,1.881-8.03,2.677c-1.037,0.354-2.344,1.572-3.348,1.566
				c-1.842-0.012-2.631-2.479-4.688-1.566c-0.18,2.389,2.525,3.359,4.238,4.463c1.854,1.194,3.803,2.384,4.463,4.462
				c-1.815,3.854-4.711-0.202-7.585-0.219c-3.166-0.022-7.788,6.03-10.486,1.116c0.67-2.604,3.539-3.009,4.237-5.578
				c-3.15,0.535-5.894,3.189-9.596,4.018c-1.556,0.343-3.071,0.26-4.464,0.664c-2.67,0.784-4.535,2.757-7.358,3.799
				c-1.105,0.406-2.423,0.281-3.573,0.664c-2.694,0.902-5.922,2.514-8.7,4.018c-2.84,1.539-6.047,3.157-7.811,4.688
				c-0.953,0.822-3.432,3.753-3.347,4.683c0.112,1.33,2.615,1.769,2.676,3.127c-0.056,0.822-1.447,2.598-0.445,3.792
				c0.913,1.088,2.745,0.208,4.683,0.445c3.409,0.423,5.64,3.24,8.255,4.689c1.978,1.093,4.914,2.395,7.146,2.676
				c3.065,0.383,6.497-0.896,6.914,1.562c0.406,2.36-2.886,3.206-3.122,4.688c1.65,2.181-1.122,3.223-1.116,5.134
				c0.006,1.549,1.905,3.871,3.567,4.012c2.249,0.191,5.54-2.215,6.475-4.463c1.11-2.677,0.636-6.305,2.676-8.255
				c10.396,0.287,19.192-4.723,18.522-15.395c-0.068-1.053-0.665-2.412-0.445-3.573c0.326-1.724,3.29-3.172,2.896-5.353
				c2.913-0.896,2.789-5.568,5.804-6.25c2.524-0.568,5.381,1.787,8.7,1.561c1.082-0.072,2.484-1.042,3.572-0.89
				c2.181,0.305,3.494,2.993,5.134,4.239c1.448,1.11,2.976,0.755,3.347,2.23c-0.433,2.502-2.191,2.564-2.012,4.908
				c0.164,2.045,2.288,3.596,3.348,3.798c1.629,0.305,3.955-0.569,5.579-1.341c2.985-1.415,5.545-5.674,8.035-5.134
				c1.967,0.429,3.504,6.678,3.792,8.927c0.311,2.411-0.327,4.254-0.221,6.474c0.289,3.765,5.027,3.38,7.36,5.354
				c0.704,0.598,0.98,2.124,1.566,2.902c1.133,1.51,2.502,1.51,2.677,3.122c0.417,3.854-3.493,4.181-3.127,8.48
				c-0.807,1.668-2.841,1.567-2.678,3.792c0.26,3.522,5.32,0.822,6.695,3.572c0.743,1.477-0.124,2.575-0.671,4.683
				c1.73,2.063,1.719,5.354-1.336,5.359C331.753,112.74,331.241,110.745,329.364,110.284z M88.15,104.484
				c1.053-1.081-0.446-3.369-2.012-2.457C85.985,102.845,86.425,104.817,88.15,104.484z M243.905,124.788
				c-0.93-0.907-3.962-0.648-6.029-0.446c-1.46,0.148-3.196,0.458-3.348,1.562C236.85,126.968,243.177,127.735,243.905,124.788z
				 M232.296,120.995c1.752-1.38,0.975-4.197-0.89-4.688c-0.732-0.192-1.707,0.541-2.902,0.45c-1.262-0.095-2.523-1.25-3.567-1.341
				c-1.78-0.152-3.589,0.728-4.243,1.562c-0.067,1.335,0.981,1.549,0.896,2.901c-2.169,1.55-1.02,6.733,1.116,6.92
				c2.265,0.198,3.437-5.73,6.468-6.249C230.274,120.358,230.837,121.175,232.296,120.995z M229.174,129.921
				c-3.172-1.127-6.102,0.767-8.7,1.115c-1.549,0.208-4.372-0.315-4.018,2.007c0.288,1.893,3.212,1.206,4.909,0.67
				C224.893,132.597,227.118,131.64,229.174,129.921z M219.359,112.96c4.446-1.894-0.879-7.726-2.902-8.256
				c-3.617-0.946-8.762,2.654-12.943,3.793c-2.355,0.642-4.598,0.699-5.133,2.682c2.113,3.494,6.288-0.767,9.371-0.226
				c1.561,0.276,2.473,2.412,4.018,2.677C212.822,113.811,218.936,113.14,219.359,112.96z M216.231,116.533
				c-0.924-1.088-5.928,0.13-7.365,1.116c-0.986,0.682-1.657,2.344-2.676,3.573c-1.054,1.268-2.232,2.248-3.122,3.347
				c-0.806,0.991-5.326,7.511-1.787,8.255c1.51,0.314,4.615-2.818,4.909-4.018c1.008-4.092,2.851-7.01,6.023-8.926
				C214.051,118.77,215.933,118.911,216.231,116.533z M188.338,91.541c2.49-0.09,4.176-7.449,0-6.474
				C185.543,85.72,184.867,91.666,188.338,91.541z M176.291,258.9c0.113-0.333,0.327-0.564,0.445-0.896
				C176.06,255.783,173.919,258.815,176.291,258.9z M81.9,72.128c0.05-0.422-0.254-0.495-0.22-0.896
				c-0.682-0.005-1.471-0.129-1.342,0.671C80.66,72.546,81.522,72.659,81.9,72.128z M316.426,37.091
				c1.099,0.135,1.719-0.214,1.562-1.335C316.995,35.057,315.547,35.975,316.426,37.091z M290.765,15.227
				c-0.288-0.31-1.054-0.31-1.342,0c0,0.293,0,0.592,0,0.89C290.371,16.321,290.544,15.751,290.765,15.227z M205.97,32.409
				c0.744-0.479,1.882-1.128,1.335-2.232c-2.463-1.155-6.627-0.275-10.262-0.67c-2.062-2.914-5.51-3.364-5.803,1.341
				C195.393,34.218,201.682,29.275,205.97,32.409z M166.024,55.393c1.268-0.439,3.026-0.213,3.346-1.566
				c-1.042-0.834-2.112-1.96-3.346-2.006c-1.618-0.056-2.396,1.375-4.018,2.232c-1.887,0.998-4.502,1.24-4.683,2.902
				C160.778,57.63,163.888,56.126,166.024,55.393z M164.908,39.322c1.426-0.242,2.891,0.401,3.798-0.89
				c-1.065-4.914-7.861-1.911-11.828-1.562c-0.833,1.398-1.949,2.514-2.23,4.464C157.724,42.111,161.437,39.914,164.908,39.322z
				 M231.852,267.38c1.764-0.288,1.25-4.34-0.89-3.354C229.344,264.776,230.184,267.645,231.852,267.38z"/>
			<path fill="#F5F5F5" d="M81.681,71.233c-0.035,0.4,0.27,0.474,0.22,0.896c-0.378,0.531-1.24,0.418-1.562-0.225
				C80.209,71.104,80.999,71.228,81.681,71.233z"/>
			<path fill="#F5F5F5" d="M74.986,84.402c-0.474,1.459-1.764,2.102-3.128,2.676c-0.428-0.321-0.799-0.693-1.115-1.115
				C70.839,83.844,73.854,82.284,74.986,84.402z"/>
		</g>
	</g>
	<g>
		<circle fill="#AFC99E" cx="965.957" cy="199.945" r="4.557"/>
		<circle fill="#60933E" cx="965.957" cy="199.945" r="2.342"/>
		<circle fill="#AFC99E" cx="1010.956" cy="139.831" r="4.557"/>
		<circle fill="#60933E" cx="1010.955" cy="139.831" r="2.341"/>
		<circle fill="#AFC99E" cx="937.667" cy="162.985" r="4.557"/>
		<circle fill="#60933E" cx="937.667" cy="162.985" r="2.341"/>
		<circle fill="#AFC99E" cx="938.426" cy="210.451" r="4.557"/>
		<circle fill="#60933E" cx="938.426" cy="210.451" r="2.342"/>
		<g>
			<circle fill="#AFC99E" cx="895.454" cy="290.03" r="4.557"/>
			<circle fill="#60933E" cx="895.454" cy="290.03" r="2.341"/>
		</g>
		<g>
			<circle fill="#AFC99E" cx="1144.264" cy="467.095" r="4.557"/>
			<circle fill="#60933E" cx="1144.264" cy="467.095" r="2.342"/>
		</g>
		<g>
			<circle fill="#AFC99E" cx="619.9" cy="204.501" r="4.557"/>
			<circle fill="#60933E" cx="619.9" cy="204.501" r="2.341"/>
		</g>
	</g>
</g>
</svg>
