<?xml version="1.0" encoding="utf-8"?>
<!-- Generator: Adobe Illustrator 16.0.0, SVG Export Plug-In . SVG Version: 6.00 Build 0)  -->
<!DOCTYPE svg PUBLIC "-//W3C//DTD SVG 1.1//EN" "http://www.w3.org/Graphics/SVG/1.1/DTD/svg11.dtd">
<svg version="1.1" id="圖層_1" xmlns="http://www.w3.org/2000/svg" xmlns:xlink="http://www.w3.org/1999/xlink" x="0px" y="0px"
	 width="14.734px" height="11.975px" viewBox="0 0 14.734 11.975" enable-background="new 0 0 14.734 11.975" xml:space="preserve">
<g>
	<path fill="#363636" d="M14.734,1.417c-0.542,0.241-1.125,0.403-1.736,0.476c0.624-0.374,1.104-0.967,1.329-1.673
		c-0.584,0.347-1.23,0.599-1.92,0.734C11.856,0.367,11.07,0,10.201,0C8.25,0,6.815,1.821,7.256,3.712
		c-2.512-0.126-4.739-1.33-6.23-3.159C0.233,1.912,0.615,3.689,1.961,4.59C1.466,4.574,0.999,4.438,0.592,4.211
		C0.559,5.612,1.562,6.922,3.017,7.213C2.591,7.329,2.125,7.355,1.651,7.265C2.036,8.466,3.152,9.34,4.476,9.365
		C3.204,10.36,1.604,10.806,0,10.616c1.338,0.857,2.927,1.358,4.634,1.358c5.612,0,8.783-4.74,8.592-8.992
		C13.816,2.556,14.329,2.023,14.734,1.417L14.734,1.417z"/>
</g>
</svg>
