<?xml version="1.0" encoding="utf-8"?>
<!-- Generator: Adobe Illustrator 16.0.0, SVG Export Plug-In . SVG Version: 6.00 Build 0)  -->
<!DOCTYPE svg PUBLIC "-//W3C//DTD SVG 1.1//EN" "http://www.w3.org/Graphics/SVG/1.1/DTD/svg11.dtd">
<svg version="1.1" id="圖層_1" xmlns="http://www.w3.org/2000/svg" xmlns:xlink="http://www.w3.org/1999/xlink" x="0px" y="0px"
	 width="16.2px" height="16.2px" viewBox="0 0 16.2 16.2" enable-background="new 0 0 16.2 16.2" xml:space="preserve">
<g>
	<path fill="#FFFFFF" d="M11.5,1.4c1.8,0,3.3,1.5,3.3,3.3v6.8c0,1.8-1.5,3.3-3.3,3.3H4.7c-1.8,0-3.3-1.5-3.3-3.3V4.7
		c0-1.8,1.5-3.3,3.3-3.3H11.5 M11.5,0H4.7C2.1,0,0,2.1,0,4.7v6.8c0,2.6,2.1,4.7,4.7,4.7h6.8c2.6,0,4.7-2.1,4.7-4.7V4.7
		C16.2,2.1,14.1,0,11.5,0L11.5,0z"/>
	<path fill="#FFFFFF" d="M8.1,5.4c1.5,0,2.8,1.2,2.8,2.8c0,1.5-1.2,2.8-2.8,2.8S5.3,9.6,5.3,8.1C5.3,6.6,6.6,5.4,8.1,5.4 M8.1,3.9
		c-2.3,0-4.2,1.9-4.2,4.2s1.9,4.2,4.2,4.2c2.3,0,4.2-1.9,4.2-4.2S10.4,3.9,8.1,3.9L8.1,3.9z"/>
	<path fill="#FFFFFF" d="M12.4,2.8c-0.5,0-1,0.4-1,1s0.4,1,1,1s1-0.4,1-1S13,2.8,12.4,2.8L12.4,2.8z"/>
</g>
<g>
</g>
<g>
</g>
<g>
</g>
<g>
</g>
<g>
</g>
<g>
</g>
</svg>
