<?xml version="1.0" encoding="utf-8"?>
<!-- Generator: Adobe Illustrator 16.0.0, SVG Export Plug-In . SVG Version: 6.00 Build 0)  -->
<!DOCTYPE svg PUBLIC "-//W3C//DTD SVG 1.1//EN" "http://www.w3.org/Graphics/SVG/1.1/DTD/svg11.dtd">
<svg version="1.1" id="圖層_1" xmlns="http://www.w3.org/2000/svg" xmlns:xlink="http://www.w3.org/1999/xlink" x="0px" y="0px"
	 width="14.7px" height="12px" viewBox="0 0 14.7 12" enable-background="new 0 0 14.7 12" xml:space="preserve">
<g>
	<path fill="#FFFFFF" d="M14.7,1.4c-0.5,0.2-1.1,0.4-1.7,0.5c0.6-0.4,1.1-1,1.3-1.7c-0.6,0.3-1.2,0.6-1.9,0.7c-0.6-0.6-1.3-1-2.2-1
		c-2,0-3.4,1.8-2.9,3.7C4.7,3.6,2.5,2.4,1,0.6C0.2,1.9,0.6,3.7,2,4.6c-0.5,0-1-0.2-1.4-0.4c0,1.4,1,2.7,2.4,3
		C2.6,7.3,2.1,7.4,1.7,7.3c0.4,1.2,0,3.5-1.7,3.4C1.3,11.5,2.9,12,4.6,12c5.6,0,8.8-4.7,8.6-9C13.8,2.6,14.3,2,14.7,1.4L14.7,1.4z"
		/>
</g>
<g>
</g>
<g>
</g>
<g>
</g>
<g>
</g>
<g>
</g>
<g>
</g>
</svg>
