<?xml version="1.0" encoding="utf-8"?>
<!-- Generator: Adobe Illustrator 16.0.0, SVG Export Plug-In . SVG Version: 6.00 Build 0)  -->
<!DOCTYPE svg PUBLIC "-//W3C//DTD SVG 1.1//EN" "http://www.w3.org/Graphics/SVG/1.1/DTD/svg11.dtd">
<svg version="1.1" id="圖層_1" xmlns="http://www.w3.org/2000/svg" xmlns:xlink="http://www.w3.org/1999/xlink" x="0px" y="0px"
	 width="148.9px" height="36px" viewBox="0 0 148.9 36" enable-background="new 0 0 148.9 36" xml:space="preserve">
<g>
	<rect x="46.8" fill="#FFFFFF" width="7" height="25.2"/>
	<rect x="58.5" fill="#FFFFFF" width="7" height="25.2"/>
	<rect x="70.2" fill="#FFFFFF" width="7" height="25.2"/>
	<polygon fill="#FFFFFF" points="0,0 19.3,0 19.3,5.4 7.8,5.4 7.8,9.8 17.6,9.8 17.6,14.9 7.8,14.9 7.8,25.2 0,25.2 	"/>
	<path fill="#FFFFFF" d="M42.3,25.2h-6.5v-3c-1,1.2-2,2.1-2.9,2.6c-1,0.5-2.2,0.8-3.7,0.8c-1.9,0-3.4-0.6-4.5-1.7
		c-1.1-1.2-1.6-2.9-1.6-5.3V7h7v10c0,1.1,0.2,2,0.6,2.4c0.4,0.5,1,0.7,1.8,0.7c0.8,0,1.5-0.3,2.1-1c0.5-0.6,0.8-1.8,0.8-3.5V7h7
		V25.2z"/>
	<path fill="#FFFFFF" d="M88.1,12.9l-6.7-0.7c0.3-1.2,0.6-2.1,1.1-2.8c0.5-0.7,1.2-1.3,2.1-1.7c0.6-0.4,1.5-0.6,2.7-0.8
		c1.1-0.2,2.3-0.3,3.6-0.3c2.1,0,3.8,0.1,5.1,0.4c1.3,0.2,2.3,0.7,3.2,1.5c0.6,0.5,1.1,1.2,1.4,2.2c0.3,0.9,0.5,1.8,0.5,2.7v8.1
		c0,0.9,0.1,1.5,0.2,2c0.1,0.5,0.3,1.1,0.7,1.9h-6.6c-0.3-0.5-0.4-0.8-0.5-1.1c-0.1-0.2-0.2-0.6-0.2-1.2c-0.9,0.9-1.8,1.5-2.7,1.9
		c-1.2,0.5-2.7,0.8-4.3,0.8c-2.2,0-3.8-0.5-5-1.5c-1.1-1-1.7-2.3-1.7-3.7c0-1.4,0.4-2.5,1.2-3.4c0.8-0.9,2.3-1.6,4.5-2
		c2.6-0.5,4.3-0.9,5.1-1.1c0.8-0.2,1.6-0.5,2.5-0.8c0-0.9-0.2-1.5-0.5-1.8c-0.4-0.3-1-0.5-1.9-0.5c-1.1,0-2,0.2-2.6,0.6
		C88.7,11.5,88.4,12.1,88.1,12.9 M94.2,16.6c-1,0.3-2,0.7-3,0.9c-1.4,0.4-2.3,0.8-2.7,1.1c-0.4,0.4-0.6,0.8-0.6,1.3
		c0,0.6,0.2,1,0.6,1.3c0.4,0.4,0.9,0.5,1.7,0.5c0.8,0,1.5-0.2,2.2-0.6c0.7-0.4,1.1-0.8,1.4-1.4c0.3-0.5,0.4-1.3,0.4-2.1V16.6z"/>
	<path fill="#FFFFFF" d="M105.2,7h6.5v3c1-1.2,2-2.1,3-2.6c1-0.5,2.2-0.8,3.6-0.8c1.9,0,3.5,0.6,4.6,1.7c1.1,1.2,1.6,2.9,1.6,5.3
		v11.6h-7v-10c0-1.1-0.2-2-0.6-2.4c-0.4-0.5-1-0.7-1.8-0.7c-0.8,0-1.5,0.3-2.1,1c-0.5,0.6-0.8,1.8-0.8,3.5v8.8h-7V7z"/>
	<path fill="#FFFFFF" d="M148,0v25.2h-6.6v-2.7c-0.9,1.1-1.8,1.9-2.5,2.3c-1,0.5-2.1,0.8-3.4,0.8c-2.5,0-4.4-1-5.7-2.8
		c-1.3-1.9-2-4.2-2-6.9c0-3,0.7-5.3,2.2-7c1.5-1.6,3.3-2.4,5.5-2.4c1.1,0,2.1,0.2,3,0.5c0.9,0.4,1.7,0.9,2.4,1.7V0H148z M140.9,16
		c0-1.4-0.3-2.5-0.9-3.2c-0.6-0.7-1.4-1.1-2.3-1.1c-0.8,0-1.5,0.3-2,1c-0.6,0.7-0.8,1.8-0.8,3.4c0,1.5,0.3,2.6,0.8,3.3
		c0.6,0.7,1.3,1,2.1,1c0.9,0,1.6-0.4,2.2-1.1C140.6,18.8,140.9,17.6,140.9,16"/>
	<rect x="0.1" y="29.8" fill="#FFFFFF" width="0.9" height="6.1"/>
	<polygon fill="#FFFFFF" points="11.7,34.7 11.7,34.7 11.7,29.8 12.5,29.8 12.5,35.9 11.5,35.9 8.2,30.9 8.2,30.9 8.2,35.9 
		7.4,35.9 7.4,29.8 8.5,29.8 	"/>
	<path fill="#FFFFFF" d="M18.9,29.8H21c0.4,0,0.8,0.1,1.2,0.2c0.4,0.1,0.7,0.3,1.1,0.5c0.3,0.2,0.6,0.6,0.8,0.9
		c0.2,0.4,0.3,0.8,0.3,1.4c0,0.5-0.1,1-0.3,1.4s-0.5,0.7-0.8,0.9c-0.3,0.2-0.7,0.4-1.1,0.6c-0.4,0.1-0.8,0.2-1.2,0.2h-2.1V29.8z
		 M19.8,35.1h1.1c0.4,0,0.7,0,1-0.2c0.3-0.1,0.6-0.3,0.8-0.4c0.2-0.2,0.4-0.4,0.5-0.7c0.1-0.3,0.2-0.6,0.2-1c0-0.4-0.1-0.7-0.2-1
		c-0.1-0.3-0.3-0.5-0.5-0.7c-0.2-0.2-0.5-0.3-0.8-0.4c-0.3-0.1-0.7-0.1-1-0.1h-1.1V35.1z"/>
	<path fill="#FFFFFF" d="M32.8,36c-0.4,0-0.8-0.1-1.1-0.2c-0.3-0.1-0.5-0.3-0.7-0.5c-0.2-0.2-0.3-0.5-0.4-0.8
		c-0.1-0.3-0.1-0.6-0.1-0.9v-3.8h0.9v3.8c0,0.2,0,0.4,0.1,0.6c0.1,0.2,0.1,0.4,0.3,0.5c0.1,0.2,0.3,0.3,0.5,0.4
		c0.2,0.1,0.4,0.1,0.7,0.1c0.3,0,0.5,0,0.7-0.1c0.2-0.1,0.4-0.2,0.5-0.4c0.1-0.2,0.2-0.3,0.3-0.5c0.1-0.2,0.1-0.4,0.1-0.6v-3.8h0.9
		v3.8c0,0.3,0,0.6-0.1,0.9c-0.1,0.3-0.2,0.5-0.4,0.8c-0.2,0.2-0.4,0.4-0.7,0.5C33.5,36,33.2,36,32.8,36"/>
	<path fill="#FFFFFF" d="M44.5,30.9c-0.1-0.2-0.3-0.3-0.5-0.4c-0.2-0.1-0.4-0.2-0.7-0.2c-0.1,0-0.3,0-0.4,0.1
		c-0.1,0-0.3,0.1-0.4,0.2c-0.1,0.1-0.2,0.2-0.3,0.3c-0.1,0.1-0.1,0.3-0.1,0.4c0,0.2,0,0.3,0.1,0.4c0.1,0.1,0.2,0.2,0.3,0.3
		c0.1,0.1,0.2,0.1,0.4,0.2c0.2,0.1,0.3,0.1,0.5,0.2c0.2,0.1,0.4,0.1,0.6,0.2c0.2,0.1,0.4,0.2,0.6,0.3c0.2,0.1,0.3,0.3,0.4,0.5
		c0.1,0.2,0.2,0.5,0.2,0.8c0,0.3-0.1,0.6-0.2,0.8c-0.1,0.2-0.3,0.4-0.5,0.6c-0.2,0.2-0.4,0.3-0.7,0.3C43.6,36,43.4,36,43.1,36
		c-0.4,0-0.8-0.1-1.1-0.2c-0.4-0.1-0.7-0.4-0.9-0.7l0.7-0.6c0.1,0.2,0.3,0.4,0.6,0.5c0.2,0.1,0.5,0.2,0.8,0.2c0.1,0,0.3,0,0.4-0.1
		c0.1,0,0.3-0.1,0.4-0.2c0.1-0.1,0.2-0.2,0.3-0.3c0.1-0.1,0.1-0.3,0.1-0.5c0-0.2,0-0.3-0.1-0.5c-0.1-0.1-0.2-0.2-0.3-0.3
		c-0.1-0.1-0.3-0.2-0.5-0.2c-0.2-0.1-0.4-0.1-0.6-0.2c-0.2-0.1-0.4-0.1-0.6-0.2c-0.2-0.1-0.4-0.2-0.5-0.3c-0.2-0.1-0.3-0.3-0.4-0.5
		c-0.1-0.2-0.1-0.4-0.1-0.7c0-0.3,0.1-0.6,0.2-0.8c0.1-0.2,0.3-0.4,0.5-0.5c0.2-0.1,0.4-0.3,0.7-0.3c0.2-0.1,0.5-0.1,0.8-0.1
		c0.4,0,0.7,0.1,1,0.2c0.3,0.1,0.6,0.3,0.8,0.5L44.5,30.9z"/>
	<polygon fill="#FFFFFF" points="53.3,35.9 52.5,35.9 52.5,30.5 50.5,30.5 50.5,29.8 55.3,29.8 55.3,30.5 53.3,30.5 	"/>
	<path fill="#FFFFFF" d="M61.9,35.9H61v-6.1h2c0.3,0,0.6,0,0.8,0.1c0.3,0.1,0.5,0.2,0.7,0.3c0.2,0.1,0.4,0.3,0.5,0.5
		c0.1,0.2,0.2,0.5,0.2,0.8c0,0.4-0.1,0.8-0.4,1.1c-0.3,0.3-0.6,0.5-1.1,0.5l1.7,2.8h-1l-1.6-2.7h-0.9V35.9z M61.9,32.4h1
		c0.2,0,0.4,0,0.6-0.1c0.2,0,0.3-0.1,0.5-0.2c0.1-0.1,0.2-0.2,0.3-0.3c0.1-0.1,0.1-0.3,0.1-0.5c0-0.2,0-0.3-0.1-0.5
		c-0.1-0.1-0.2-0.2-0.3-0.3c-0.1-0.1-0.3-0.1-0.4-0.2c-0.2,0-0.3,0-0.5,0h-1V32.4z"/>
	<rect x="71.2" y="29.8" fill="#FFFFFF" width="0.9" height="6.1"/>
	<path fill="#FFFFFF" d="M78.8,35.9h-0.9l2.6-6.1h0.8l2.6,6.1h-1l-0.6-1.5h-2.9L78.8,35.9z M79.7,33.6H82l-1.1-2.9L79.7,33.6z"/>
	<polygon fill="#FFFFFF" points="90.4,35.1 93.1,35.1 93.1,35.9 89.6,35.9 89.6,29.8 90.4,29.8 	"/>
	<path fill="#FFFFFF" d="M111,34.9c-0.2,0.3-0.6,0.6-0.9,0.8c-0.4,0.2-0.8,0.3-1.4,0.3c-0.5,0-0.9-0.1-1.3-0.2
		c-0.4-0.2-0.7-0.4-1-0.7c-0.3-0.3-0.5-0.6-0.7-1c-0.2-0.4-0.2-0.8-0.2-1.3c0-0.5,0.1-0.9,0.2-1.3c0.2-0.4,0.4-0.7,0.7-1
		c0.3-0.3,0.6-0.5,1-0.7c0.4-0.2,0.8-0.2,1.3-0.2c0.2,0,0.4,0,0.6,0.1c0.2,0,0.4,0.1,0.6,0.2c0.2,0.1,0.4,0.2,0.5,0.3
		c0.2,0.1,0.3,0.3,0.4,0.4l-0.7,0.5c-0.2-0.2-0.4-0.4-0.6-0.5c-0.3-0.1-0.6-0.2-0.9-0.2c-0.4,0-0.7,0.1-1,0.2
		c-0.3,0.1-0.5,0.3-0.7,0.5c-0.2,0.2-0.4,0.5-0.5,0.8c-0.1,0.3-0.2,0.6-0.2,0.9c0,0.3,0.1,0.7,0.2,1c0.1,0.3,0.3,0.6,0.5,0.8
		c0.2,0.2,0.4,0.4,0.7,0.5c0.3,0.1,0.6,0.2,0.9,0.2c0.3,0,0.7-0.1,0.9-0.2c0.3-0.1,0.5-0.3,0.7-0.6L111,34.9z"/>
	<path fill="#FFFFFF" d="M122.9,32.8c0,0.5-0.1,0.9-0.2,1.3c-0.2,0.4-0.4,0.7-0.7,1c-0.3,0.3-0.6,0.5-1,0.7
		c-0.4,0.2-0.8,0.2-1.3,0.2c-0.5,0-0.9-0.1-1.3-0.2c-0.4-0.2-0.7-0.4-1-0.7c-0.3-0.3-0.5-0.6-0.7-1c-0.2-0.4-0.2-0.8-0.2-1.3
		c0-0.5,0.1-0.9,0.2-1.3c0.2-0.4,0.4-0.7,0.7-1c0.3-0.3,0.6-0.5,1-0.7c0.4-0.2,0.8-0.2,1.3-0.2c0.5,0,0.9,0.1,1.3,0.2
		c0.4,0.2,0.7,0.4,1,0.7c0.3,0.3,0.5,0.6,0.7,1C122.8,31.9,122.9,32.3,122.9,32.8 M121.9,32.8c0-0.3-0.1-0.6-0.2-0.9
		c-0.1-0.3-0.3-0.6-0.5-0.8c-0.2-0.2-0.4-0.4-0.7-0.5c-0.3-0.1-0.6-0.2-1-0.2c-0.4,0-0.7,0.1-1,0.2c-0.3,0.1-0.5,0.3-0.7,0.5
		c-0.2,0.2-0.4,0.5-0.5,0.8c-0.1,0.3-0.2,0.6-0.2,0.9c0,0.3,0.1,0.7,0.2,1c0.1,0.3,0.3,0.6,0.5,0.8c0.2,0.2,0.4,0.4,0.7,0.5
		c0.3,0.1,0.6,0.2,1,0.2s0.7-0.1,1-0.2c0.3-0.1,0.5-0.3,0.7-0.5c0.2-0.2,0.4-0.5,0.5-0.8C121.9,33.5,121.9,33.2,121.9,32.8"/>
	<path fill="#FFFFFF" d="M129.8,35.9h-0.9v-6.1h2c0.3,0,0.6,0,0.8,0.1c0.3,0.1,0.5,0.2,0.7,0.3c0.2,0.1,0.4,0.3,0.5,0.5
		c0.1,0.2,0.2,0.5,0.2,0.8c0,0.4-0.1,0.8-0.4,1.1c-0.3,0.3-0.6,0.5-1.1,0.5l1.7,2.8h-1l-1.6-2.7h-0.9V35.9z M129.8,32.4h1
		c0.2,0,0.4,0,0.6-0.1c0.2,0,0.3-0.1,0.5-0.2c0.1-0.1,0.2-0.2,0.3-0.3c0.1-0.1,0.1-0.3,0.1-0.5c0-0.2,0-0.3-0.1-0.5
		c-0.1-0.1-0.2-0.2-0.3-0.3c-0.1-0.1-0.3-0.1-0.4-0.2c-0.2,0-0.3,0-0.5,0h-1V32.4z"/>
	<path fill="#FFFFFF" d="M139.2,29.8h1.9c0.3,0,0.6,0,0.9,0.1c0.3,0.1,0.5,0.2,0.7,0.3c0.2,0.1,0.3,0.3,0.4,0.5
		c0.1,0.2,0.2,0.5,0.2,0.8s-0.1,0.6-0.2,0.8c-0.1,0.2-0.3,0.4-0.5,0.5c-0.2,0.1-0.4,0.2-0.7,0.3c-0.3,0.1-0.6,0.1-0.9,0.1h-1v2.7
		h-0.9V29.8z M140,32.5h0.9c0.2,0,0.4,0,0.6-0.1c0.2,0,0.3-0.1,0.4-0.2c0.1-0.1,0.2-0.2,0.3-0.3c0.1-0.1,0.1-0.3,0.1-0.5
		c0-0.2,0-0.3-0.1-0.5c-0.1-0.1-0.2-0.2-0.3-0.3c-0.1-0.1-0.3-0.1-0.4-0.2c-0.2,0-0.4,0-0.6,0H140V32.5z"/>
	<path fill="#FFFFFF" d="M148.9,35.4c0,0.1-0.1,0.3-0.2,0.4c-0.1,0.1-0.3,0.2-0.4,0.2c-0.2,0-0.3-0.1-0.4-0.2
		c-0.1-0.1-0.2-0.2-0.2-0.4c0-0.2,0.1-0.3,0.2-0.4c0.1-0.1,0.2-0.2,0.4-0.2c0.2,0,0.3,0.1,0.4,0.2C148.9,35.1,148.9,35.2,148.9,35.4
		"/>
</g>
<g>
</g>
<g>
</g>
<g>
</g>
<g>
</g>
<g>
</g>
<g>
</g>
</svg>
